<?xml version="1.0" standalone="no"?>
<!DOCTYPE svg PUBLIC "-//W3C//DTD SVG 20010904//EN"
 "http://www.w3.org/TR/2001/REC-SVG-20010904/DTD/svg10.dtd">
<svg version="1.0" xmlns="http://www.w3.org/2000/svg"
 width="1000.000000pt" height="667.000000pt" viewBox="0 0 1000.000000 667.000000"
 preserveAspectRatio="xMidYMid meet">

<g transform="translate(0.000000,667.000000) scale(0.100000,-0.100000)"
fill="#000000" stroke="none">
<path d="M9440 6192 c0 -5 -10 -8 -21 -8 -12 1 -24 -6 -26 -14 -4 -12 -3 -13
5 -1 6 8 17 11 26 8 8 -3 18 -2 21 4 4 5 10 7 15 4 5 -3 11 -1 15 5 3 5 -3 10
-14 10 -12 0 -21 -4 -21 -8z"/>
<path d="M9523 6183 c4 -3 2 -12 -5 -20 -9 -11 -7 -12 7 -7 13 5 16 4 11 -4
-5 -8 1 -12 18 -12 14 0 35 -10 46 -22 20 -21 21 -21 15 -3 -7 20 -6 20 9 1
12 -15 16 -16 16 -5 0 12 2 12 9 0 5 -8 8 -22 6 -32 -2 -10 1 -22 7 -25 7 -5
8 -2 3 6 -6 10 -4 12 9 7 12 -5 16 -3 13 5 -2 7 -11 12 -18 10 -8 -2 -10 0 -6
4 10 11 38 14 32 4 -5 -8 18 -20 38 -20 9 0 9 2 1 8 -6 4 -16 17 -23 30 -8 15
-21 22 -39 22 -16 0 -33 5 -39 11 -8 8 -13 7 -18 -1 -5 -8 -16 -2 -36 19 -15
17 -36 31 -45 31 -10 0 -14 -3 -11 -7z"/>
<path d="M9925 6183 c-16 -3 -34 -9 -39 -14 -6 -5 -25 -9 -44 -9 -19 0 -47 -9
-63 -21 -23 -16 -29 -28 -29 -59 0 -21 4 -41 9 -44 5 -4 7 3 4 14 -7 26 25 64
42 50 6 -5 14 -8 16 -5 3 2 5 -5 6 -16 2 -19 1 -18 -17 3 -16 20 -19 20 -20 6
0 -10 5 -18 10 -18 6 0 10 -8 10 -17 0 -15 -4 -13 -20 7 -11 14 -20 20 -20 13
0 -6 13 -26 28 -43 19 -20 29 -26 29 -15 0 8 -5 15 -10 15 -6 0 -3 8 6 18 10
10 17 24 17 31 0 7 5 9 11 6 6 -4 13 3 16 15 4 14 8 17 13 10 9 -15 0 -60 -12
-60 -5 0 -2 -7 7 -16 11 -11 13 -20 5 -29 -12 -15 23 -51 40 -40 6 3 9 1 8 -7
-2 -8 6 -13 18 -12 11 0 21 -5 21 -12 0 -6 -9 -9 -19 -6 -10 2 -18 -1 -18 -7
0 -7 5 -9 10 -6 14 9 12 -9 -2 -24 -7 -7 -8 -11 -3 -9 6 2 11 0 13 -4 1 -5 -3
-8 -9 -8 -6 0 -8 -4 -4 -10 3 -6 12 -7 18 -3 12 8 17 9 37 12 6 1 10 62 10
161 0 179 7 164 -75 153z m-22 -143 c3 -11 1 -20 -4 -20 -5 0 -9 9 -9 20 0 11
2 20 4 20 2 0 6 -9 9 -20z m24 -46 c0 -7 -4 -11 -8 -8 -4 2 -9 -1 -11 -7 -2
-7 -9 -5 -17 5 -12 14 -12 16 4 10 11 -5 16 -4 12 3 -3 5 0 10 7 10 7 0 13 -6
13 -13z m43 -19 c0 -2 -6 -8 -13 -14 -10 -8 -14 -7 -14 2 0 8 6 14 14 14 7 0
13 -1 13 -2z m15 -84 c-5 -17 -9 -18 -20 -8 -7 6 -11 16 -8 21 3 4 9 2 14 -5
7 -11 9 -9 9 5 0 11 3 17 6 13 3 -3 3 -15 -1 -26z"/>
<path d="M9793 5995 c0 -8 4 -12 9 -9 5 3 6 10 3 15 -9 13 -12 11 -12 -6z"/>
<path d="M9851 5994 c0 -11 3 -14 6 -6 3 7 2 16 -1 19 -3 4 -6 -2 -5 -13z"/>
<path d="M9825 5961 c-3 -5 -2 -12 3 -15 5 -3 9 1 9 9 0 17 -3 19 -12 6z"/>
<path d="M9878 5955 c6 -11 11 -24 12 -30 1 -5 4 -12 7 -15 2 -3 4 0 3 5 -5
21 1 29 10 15 8 -13 10 -12 10 3 0 11 -5 17 -12 14 -7 -2 -19 3 -26 12 -11 14
-12 13 -4 -4z"/>
<path d="M9855 5941 c-3 -5 -2 -12 3 -15 5 -3 9 1 9 9 0 17 -3 19 -12 6z"/>
<path d="M275 4659 c-34 -12 -131 -28 -218 -36 l-57 -5 0 -1474 0 -1474 25 10
c23 9 25 8 16 -8 -6 -10 -17 -24 -25 -32 -14 -11 -16 -102 -16 -826 l0 -814
1474 0 c1159 0 1476 3 1479 13 4 9 6 9 6 0 1 -9 168 -12 707 -12 417 -1 703 3
700 8 -7 11 17 21 50 21 14 0 23 4 20 8 -6 10 80 9 90 0 3 -4 -26 -10 -65 -14
-39 -3 -74 -11 -77 -15 -6 -10 604 -11 620 -1 12 7 13 7 61 17 67 14 47 24
-54 27 -45 1 -84 5 -87 9 -7 12 62 22 103 15 21 -4 66 -8 101 -8 45 -1 62 -5
62 -15 0 -7 5 -13 11 -13 5 0 7 -4 4 -10 -3 -6 1 -7 9 -4 19 7 22 -12 4 -20
-10 -4 152 -1 172 3 3 1 -2 6 -10 11 -8 5 -42 7 -75 5 -33 -2 -50 -2 -37 1 22
5 22 7 6 19 -15 11 -12 12 27 10 24 -2 54 -3 66 -4 12 -1 29 -8 37 -17 9 -8
26 -14 38 -12 14 2 22 -2 20 -9 -1 -9 13 -13 49 -13 55 0 61 19 6 21 -18 1 -3
5 33 10 74 10 123 4 99 -13 -11 -7 -9 -9 8 -5 12 3 24 0 26 -7 3 -8 11 -7 28
3 16 10 24 10 27 2 2 -7 49 -11 146 -11 l142 0 29 30 c26 28 55 40 55 23 0 -4
-10 -17 -22 -30 l-22 -23 1110 0 c611 1 1120 3 1132 7 22 5 22 7 6 24 -10 11
-14 22 -10 26 4 4 11 2 15 -5 4 -7 23 -12 44 -10 20 1 39 -1 43 -5 4 -4 1 -7
-7 -7 -9 0 -24 -7 -35 -14 -17 -13 85 -15 809 -16 l827 0 0 765 c0 583 -3 764
-12 759 -7 -5 -9 -2 -5 8 3 9 3 19 0 22 -9 8 -55 -72 -49 -83 4 -5 -6 -20 -21
-33 -16 -12 -37 -36 -47 -53 -21 -32 -32 -47 -58 -75 -25 -27 -40 -60 -29 -60
5 0 13 5 16 10 3 6 11 10 17 10 6 0 3 -11 -6 -25 -20 -30 -20 -35 -2 -35 15 0
30 45 20 61 -8 14 17 41 33 35 7 -3 13 1 13 9 0 7 4 17 10 20 6 4 7 -1 3 -12
-6 -16 -5 -17 12 -3 17 14 18 14 6 -8 -7 -12 -16 -20 -21 -17 -5 3 -11 1 -15
-5 -3 -5 -2 -10 3 -10 9 0 1 -78 -11 -97 -4 -6 -2 -13 4 -15 5 -2 -1 -17 -15
-33 -14 -16 -28 -26 -32 -22 -9 9 -54 -32 -54 -49 0 -10 -10 -9 -45 3 -39 13
-44 17 -35 34 6 10 18 19 28 19 11 0 13 3 6 8 -6 4 -14 17 -18 30 -4 12 -16
27 -27 33 -11 5 -17 15 -13 21 4 6 15 -1 29 -18 18 -23 23 -25 28 -11 4 10 1
17 -5 17 -7 0 -2 9 10 20 27 26 30 62 5 53 -10 -3 -26 -15 -36 -27 -13 -16
-16 -17 -11 -3 10 28 -6 20 -16 -9 -7 -17 -15 -24 -25 -20 -8 3 -15 1 -15 -3
0 -5 7 -11 14 -14 8 -3 22 -21 31 -39 l16 -33 -29 32 c-16 18 -35 33 -43 35
-8 2 -17 8 -21 13 -4 6 -8 -2 -8 -17 0 -16 -4 -28 -10 -28 -10 0 -14 14 -11
39 2 7 -2 10 -8 6 -6 -3 -8 -17 -5 -32 5 -19 4 -24 -6 -18 -9 5 -10 2 -5 -14
5 -15 2 -21 -10 -21 -13 0 -15 7 -9 36 6 31 2 40 -27 72 -19 20 -23 28 -10 17
l24 -20 -5 23 c-4 12 -2 22 4 22 6 0 8 -11 6 -25 -3 -14 0 -30 7 -35 9 -8 18
-1 34 25 11 20 21 39 21 42 0 3 15 24 33 47 18 23 44 59 57 81 57 97 233 295
262 295 5 0 25 12 44 27 l34 28 0 931 0 931 -67 -33 c-38 -18 -120 -51 -183
-74 -140 -50 -157 -56 -295 -115 -60 -26 -137 -55 -170 -65 -69 -21 -133 -46
-225 -88 -70 -32 -208 -90 -305 -127 -62 -24 -250 -118 -299 -150 -15 -10 -33
-29 -40 -43 -10 -20 -14 -22 -19 -9 -3 9 0 23 8 31 36 36 2 35 -71 -3 l-55
-28 -37 18 c-20 11 -43 19 -52 19 -9 0 -20 4 -26 9 -5 5 -75 13 -156 17 l-147
7 -12 31 c-14 38 -21 323 -8 331 5 4 7 16 3 29 -3 12 1 53 9 92 12 54 13 90 6
163 -13 127 -26 154 -83 180 -58 25 -77 43 -65 62 5 8 9 10 9 4 1 -5 5 0 10
13 6 14 18 22 34 22 39 0 40 18 2 37 -31 14 -36 22 -36 50 0 27 -5 35 -26 43
-65 25 -104 5 -104 -54 0 -14 -5 -26 -11 -26 -5 0 -7 5 -4 10 9 14 -15 12 -43
-3 -22 -13 -22 -14 -5 -29 10 -9 30 -21 44 -27 15 -5 34 -23 42 -40 l15 -30
-42 -21 c-63 -33 -83 -57 -91 -107 -3 -25 -9 -55 -12 -66 -3 -12 -6 -96 -8
-187 -1 -91 -5 -177 -10 -193 -8 -31 7 -57 34 -57 13 0 22 -22 39 -107 28
-138 28 -159 0 -168 -13 -4 -26 -7 -30 -6 -5 1 -8 -8 -8 -19 0 -15 -7 -20 -27
-20 l-28 1 25 14 c20 12 22 14 7 15 -23 0 -85 -27 -111 -49 -15 -12 -17 -13
-11 -2 5 9 -6 6 -29 -8 -20 -13 -40 -21 -43 -17 -4 3 -2 6 3 6 5 1 -22 11 -61
24 -38 13 -101 44 -139 70 -111 74 -145 81 -396 79 -272 -3 -291 -5 -335 -47
l-35 -34 -53 19 c-28 10 -64 20 -79 24 -16 3 -28 12 -28 21 0 54 -104 175
-166 194 -22 6 -91 14 -154 17 -126 6 -190 -5 -218 -38 -10 -12 -29 -19 -52
-19 -58 0 -189 -29 -249 -54 -31 -14 -82 -32 -114 -42 -33 -9 -64 -22 -70 -28
-7 -6 -30 -23 -52 -37 -62 -41 -126 -102 -121 -116 3 -7 -2 -19 -10 -28 -8 -8
-16 -25 -18 -37 -1 -13 -11 -40 -21 -61 -16 -32 -20 -35 -26 -20 -7 16 -8 16
-8 1 -1 -10 -12 -42 -26 -72 -14 -30 -25 -61 -25 -68 0 -8 -20 -33 -44 -57
-40 -40 -46 -42 -87 -37 -24 3 -109 5 -189 6 -255 2 -260 1 -254 -14 4 -11
-23 -16 -128 -25 -73 -6 -180 -16 -238 -21 -58 -6 -202 -11 -320 -12 l-215 -3
-59 28 c-32 15 -65 27 -73 27 -7 0 -25 8 -39 17 -17 11 -54 18 -110 21 -97 5
-113 16 -94 62 10 24 9 38 -4 76 -18 52 -42 84 -63 84 -8 0 -22 9 -32 21 l-16
20 -27 -20 c-14 -12 -32 -21 -40 -21 -8 0 -45 19 -82 43 -54 33 -71 49 -80 77
-10 31 -15 35 -49 38 -33 3 -41 8 -53 37 -9 22 -22 35 -36 37 -15 2 -24 11
-26 25 -2 16 -12 24 -37 29 -18 3 -43 17 -56 30 -12 13 -36 28 -53 34 -26 8
-34 18 -44 55 -14 53 -48 79 -101 78 -20 -1 -41 3 -46 7 -6 5 -40 14 -75 19
-76 12 -105 37 -90 75 13 34 -55 229 -97 283 -36 45 -40 64 -18 83 8 7 15 18
15 25 0 6 -43 53 -95 104 -52 51 -95 96 -95 101 0 5 -12 22 -26 40 -19 22 -32
29 -45 25 -18 -6 -48 12 -99 59 -23 21 -83 56 -97 56 -26 0 -93 54 -93 75 0
12 -6 30 -14 40 -13 18 -16 18 -55 3 -41 -16 -43 -16 -78 8 -20 13 -39 24 -43
24 -14 0 -20 30 -11 53 14 35 0 48 -65 61 -49 10 -60 16 -62 34 -5 32 -55 69
-120 87 -31 9 -70 21 -87 27 -16 6 -54 16 -83 22 -29 7 -56 17 -60 23 -4 6
-23 14 -42 18 -19 4 -43 17 -52 28 -26 33 -226 66 -283 46z m9255 -1332 c0
-11 -40 -34 -45 -27 -4 6 4 14 17 19 28 12 28 12 28 8z m-95 -56 c-3 -6 -14
-11 -23 -11 -13 0 -13 2 4 14 21 15 30 14 19 -3z m-1918 -33 c-3 -7 -5 -2 -5
12 0 14 2 19 5 13 2 -7 2 -19 0 -25z m203 -105 c18 -65 37 -126 42 -136 13
-24 10 -26 -49 -36 l-50 -8 -6 94 c-7 115 1 203 18 203 8 0 26 -48 45 -117z
m1600 90 c-14 -9 -35 -25 -48 -37 -12 -11 -30 -21 -39 -22 -21 -3 -35 -26 -23
-38 6 -6 3 -14 -8 -22 -9 -7 -14 -15 -10 -19 9 -10 58 25 58 41 0 17 106 87
122 82 6 -2 -9 -16 -34 -30 -74 -44 -90 -80 -18 -43 22 11 30 12 34 2 5 -9 7
-9 12 1 3 6 11 9 17 5 7 -4 8 0 3 12 -5 15 -4 16 9 5 25 -21 18 -30 -55 -62
-38 -17 -70 -36 -70 -42 0 -12 -23 -33 -59 -54 -19 -11 -93 -15 -166 -10 -26
2 -17 24 40 89 91 106 121 136 144 142 19 4 20 3 10 -9 -10 -12 -9 -17 1 -27
7 -7 10 -7 7 -1 -4 6 10 20 31 32 45 24 77 29 42 5z m-445 -83 c-3 -5 -11 -10
-16 -10 -6 0 -7 5 -4 10 3 6 11 10 16 10 6 0 7 -4 4 -10z m-95 -38 c0 -5 -12
-14 -27 -21 l-28 -12 25 21 c29 22 30 23 30 12z m169 -11 c12 -8 13 -15 3 -35
-11 -24 -10 -25 14 -16 30 12 44 13 44 2 0 -14 -120 -72 -147 -71 l-28 0 33
16 c19 10 33 25 34 37 1 12 2 28 4 36 1 8 2 21 3 28 1 14 20 16 40 3z m-8671
-22 c-2 -6 -8 -10 -13 -10 -5 0 -11 4 -13 10 -2 6 4 11 13 11 9 0 15 -5 13
-11z m5102 -23 c0 -2 -9 -6 -20 -9 -11 -3 -18 -1 -14 4 5 9 34 13 34 5z m-60
-26 c0 -5 -5 -10 -11 -10 -5 0 -7 5 -4 10 3 6 8 10 11 10 2 0 4 -4 4 -10z
m-90 -23 c0 -19 -37 -40 -46 -24 -4 6 -4 9 1 5 5 -5 14 1 22 12 16 23 23 25
23 7z m3490 -27 c-8 -6 -10 -10 -5 -11 11 0 -75 -29 -89 -29 -20 0 12 21 33
23 11 1 21 5 21 9 0 10 43 28 50 21 2 -2 -2 -8 -10 -13z m-3434 -5 c-10 -8
-24 -11 -30 -8 -6 4 0 10 14 14 36 10 37 10 16 -6z m124 0 c0 -1 -12 -2 -26
-2 -15 0 -30 -7 -35 -14 -7 -11 -9 -11 -9 -1 0 15 39 32 58 25 6 -3 12 -6 12
-8z m-265 -14 c-3 -6 -11 -11 -17 -11 -6 0 -6 6 2 15 14 17 26 13 15 -4z m-43
-18 c-6 -2 -10 -8 -8 -12 3 -4 -1 -8 -9 -8 -11 0 -12 4 -4 14 6 7 17 13 23 12
7 0 6 -2 -2 -6z m3378 -14 c0 -6 -4 -7 -10 -4 -5 3 -10 11 -10 16 0 6 5 7 10
4 6 -3 10 -11 10 -16z m94 -18 c-10 -11 -34 -36 -53 -55 -33 -34 -57 -43 -31
-11 10 12 10 15 -1 15 -18 1 26 36 66 55 41 18 42 18 19 -4z m-997 -38 c-3
-10 -5 -2 -5 17 0 19 2 27 5 18 2 -10 2 -26 0 -35z m-2513 5 c-4 -13 -8 -30
-9 -39 0 -21 -56 -107 -89 -138 -14 -14 -26 -33 -26 -43 0 -11 -4 -17 -9 -13
-14 8 -40 -33 -57 -92 -17 -58 -23 -66 -43 -54 -11 7 -10 13 3 33 9 14 14 32
11 40 -4 9 1 18 10 22 9 3 15 15 14 28 -3 27 19 88 32 88 5 0 4 -12 -1 -26
-18 -47 -10 -48 18 -3 15 24 34 62 41 84 8 25 27 51 52 70 21 17 42 40 45 53
4 13 9 21 11 18 3 -2 1 -15 -3 -28z m2703 26 c-3 -3 -12 -4 -19 -1 -8 3 -5 6
6 6 11 1 17 -2 13 -5z m-2052 -14 c3 -5 1 -10 -4 -10 -6 0 -11 5 -11 10 0 6 2
10 4 10 3 0 8 -4 11 -10z m1128 3 c-7 -2 -19 -2 -25 0 -7 3 -2 5 12 5 14 0 19
-2 13 -5z m1606 -32 c-7 -11 -19 -16 -31 -13 -24 6 -23 11 5 22 33 13 38 12
26 -9z m-945 -14 c-17 -10 -93 -22 -84 -14 15 13 52 28 46 18 -4 -6 -2 -11 4
-11 6 0 13 6 16 14 3 8 12 12 21 9 13 -5 13 -7 -3 -16z m1734 9 c-7 -8 -16
-12 -21 -9 -11 7 2 23 19 23 12 0 12 -2 2 -14z m-1908 -17 c0 -4 -9 -9 -20
-12 -11 -3 -20 -1 -20 4 0 16 -24 5 -53 -24 -20 -20 -36 -27 -55 -24 l-27 3
33 13 c17 7 32 16 32 20 0 13 43 29 78 28 17 -1 32 -4 32 -8z m70 -18 c0 -5
-11 -12 -25 -15 -14 -4 -25 -11 -25 -16 0 -6 -10 -10 -22 -10 -18 1 -13 6 22
25 53 28 50 27 50 16z m1700 -16 c-7 -8 -17 -15 -23 -15 -6 0 -2 7 9 15 25 19
30 19 14 0z m-1830 0 c0 -2 -10 -9 -22 -15 -22 -11 -22 -10 -4 4 21 17 26 19
26 11z m630 -15 c-18 -11 -70 -13 -70 -2 0 4 19 8 43 10 30 1 38 -1 27 -8z
m-2844 -57 c5 -46 4 -47 -9 -22 -8 15 -12 39 -10 53 7 37 14 26 19 -31z m2234
50 c-8 -3 -24 -10 -35 -15 -20 -9 -20 -9 -1 6 11 9 27 16 35 15 14 0 14 -1 1
-6z m-405 -13 c-3 -5 -12 -7 -20 -3 -21 7 -19 13 6 13 11 0 18 -4 14 -10z
m763 -3 c-16 -6 -28 -17 -28 -24 0 -15 16 -17 25 -3 11 17 35 11 35 -9 0 -22
-21 -33 -40 -21 -20 13 -32 1 -24 -23 3 -12 3 -19 -2 -14 -4 4 -9 27 -10 52
-3 46 4 53 51 53 15 0 14 -3 -7 -11z m222 -7 c22 14 28 12 41 -11 14 -27 -4
-41 -37 -29 -12 5 -25 6 -28 3 -3 -4 -6 7 -6 23 0 17 3 24 8 17 5 -8 13 -9 22
-3z m-1290 -14 c0 -14 -29 -31 -37 -22 -6 6 19 35 30 36 4 0 7 -6 7 -14z
m1708 -10 c-15 -6 -41 -24 -57 -40 -16 -15 -31 -27 -33 -26 -1 1 -11 -2 -21
-6 -13 -5 -15 -9 -7 -14 9 -6 5 -15 -14 -31 -26 -23 -66 -36 -66 -21 0 22 185
153 214 151 6 0 -1 -6 -16 -13z m-429 -64 c6 -20 5 -34 -2 -41 -19 -19 -22
-12 -19 35 4 50 8 51 21 6z m-2778 -17 c16 11 10 -12 -8 -26 -15 -12 -16 -12
-11 3 4 10 1 19 -8 22 -9 3 -12 11 -8 17 5 8 10 6 16 -5 5 -9 13 -14 19 -11z
m3137 -16 c-12 -16 -27 -29 -32 -28 -6 0 -5 3 1 6 9 3 10 10 3 22 -11 22 -9
26 24 27 l25 2 -21 -29z m-617 -3 c-9 -11 -9 -15 1 -19 7 -3 3 -6 -9 -6 -27
-1 -29 6 -6 31 19 21 32 16 14 -6z m310 7 c13 -16 12 -17 -3 -4 -17 13 -22 21
-14 21 2 0 10 -8 17 -17z m-2965 -65 c-9 -13 -26 -38 -39 -55 -12 -18 -26 -33
-31 -33 -6 0 -5 5 2 12 7 7 12 17 12 23 0 13 63 85 69 79 2 -2 -4 -14 -13 -26z
m4487 25 c-7 -2 -19 -2 -25 0 -7 3 -2 5 12 5 14 0 19 -2 13 -5z m-4619 -78
c-4 -8 -11 -15 -16 -15 -6 0 -5 6 2 15 7 8 14 15 16 15 2 0 1 -7 -2 -15z m599
-27 c-2 -5 -10 -8 -18 -8 -8 0 -16 3 -18 8 -3 4 5 7 18 7 13 0 21 -3 18 -7z
m-3356 -133 c-26 -25 -48 -45 -51 -45 -3 0 6 16 19 36 14 20 25 41 25 45 0 5
12 9 26 9 25 0 25 -1 -19 -45z m4728 5 c3 -5 1 -10 -4 -10 -6 0 -11 5 -11 10
0 6 2 10 4 10 3 0 8 -4 11 -10z m-665 -42 c0 -6 -7 -5 -15 2 -8 7 -15 17 -15
22 0 6 7 5 15 -2 8 -7 15 -17 15 -22z m630 25 c0 -5 -11 -13 -25 -20 -14 -6
-25 -8 -25 -4 0 5 10 13 23 19 28 14 27 13 27 5z m-727 -57 c-3 -4 -9 -2 -14
5 -7 11 -9 9 -9 -5 0 -11 -3 -17 -6 -13 -3 3 -3 15 1 26 5 17 9 18 20 8 7 -6
11 -16 8 -21z m-4997 -12 c-10 -14 -20 -23 -23 -21 -2 3 3 17 13 31 9 15 19
24 22 22 2 -3 -3 -17 -12 -32z m18 -8 c-9 -15 -19 -25 -21 -22 -3 2 3 16 13
30 9 15 19 25 21 22 3 -2 -3 -16 -13 -30z m5021 -6 c-9 -27 3 -25 15 3 7 18 9
19 9 4 1 -27 -18 -59 -31 -51 -7 4 -8 3 -4 -4 4 -7 16 -12 27 -12 11 0 17 5
14 10 -3 6 -3 15 1 22 5 8 9 6 14 -7 14 -40 -49 -75 -68 -37 -9 17 -8 22 9 70
10 27 23 30 14 2z m-4146 -68 c-17 -39 -38 -73 -46 -77 -22 -8 -25 -2 -13 30
13 33 80 128 87 122 2 -3 -10 -36 -28 -75z m4078 46 c-3 -8 -6 -5 -6 6 -1 11
2 17 5 13 3 -3 4 -12 1 -19z m27 -13 c-4 -8 -11 -15 -16 -15 -6 0 -5 6 2 15 7
8 14 15 16 15 2 0 1 -7 -2 -15z m-9 -34 c3 -5 2 -12 -3 -15 -5 -3 -9 1 -9 9 0
17 3 19 12 6z m628 -8 c-3 -7 -6 -13 -8 -13 -2 0 -5 6 -8 13 -3 8 1 14 8 14 7
0 11 -6 8 -14z m-5566 -49 c-33 -31 -48 -25 -17 6 13 13 19 28 15 38 -5 15 -4
15 12 -1 17 -17 16 -18 -10 -43z m-103 31 c-6 -16 -24 -21 -24 -7 0 11 11 22
21 22 5 0 6 -7 3 -15z m1406 -2 c-8 -3 -21 -10 -27 -16 -9 -7 -13 -5 -13 7 0
11 8 16 28 15 15 0 21 -3 12 -6z m3715 -13 c-15 -16 -15 -22 -5 -35 8 -10 9
-15 1 -15 -6 0 -11 5 -11 11 0 8 -4 8 -14 0 -9 -7 -17 -8 -20 -3 -3 6 1 13 9
16 8 3 14 11 13 18 -2 7 3 12 10 11 6 -2 12 2 12 7 0 6 5 10 12 10 6 0 3 -9
-7 -20z m597 3 c-6 -2 -9 -10 -6 -15 4 -7 2 -8 -5 -4 -13 9 -5 26 12 25 9 0 8
-2 -1 -6z m-4379 -23 c-13 -5 -23 -14 -23 -20 0 -5 -5 -10 -12 -10 -6 0 -3 9
7 20 10 11 25 20 34 19 10 0 8 -3 -6 -9z m3712 -39 c-3 -6 -11 -11 -17 -11 -6
0 -6 6 2 15 14 17 26 13 15 -4z m-3760 -1 c4 -6 2 -9 -3 -8 -13 4 -92 -44 -92
-54 0 -5 -5 -8 -11 -8 -18 0 2 21 49 51 53 33 49 32 57 19z m3821 -22 c-10 -5
-23 -5 -33 1 -15 8 -11 10 15 9 26 -1 30 -3 18 -10z m-106 -38 c0 -5 -5 -10
-11 -10 -5 0 -7 5 -4 10 3 6 8 10 11 10 2 0 4 -4 4 -10z m-3750 -4 c0 -3 -4
-8 -10 -11 -5 -3 -10 -1 -10 4 0 6 5 11 10 11 6 0 10 -2 10 -4z m-113 -22 c0
-8 -16 -19 -34 -25 -22 -7 -32 -16 -29 -24 2 -7 -2 -16 -10 -19 -9 -3 -12 -1
-9 4 3 6 2 10 -4 10 -5 0 -13 -9 -16 -20 -3 -11 -13 -20 -22 -20 -8 0 -13 -6
-10 -13 3 -7 -1 -24 -9 -38 -7 -13 -14 -33 -14 -44 0 -11 -8 -29 -16 -40 -16
-19 -16 -19 -12 7 3 15 1 25 -3 22 -5 -3 -9 -20 -9 -37 0 -18 -12 -50 -25 -72
-14 -23 -25 -33 -25 -23 0 9 -7 24 -16 33 -14 14 -15 18 -1 33 8 9 17 33 21
52 3 19 19 54 34 76 15 23 39 62 54 88 31 52 48 60 40 19 -5 -25 -3 -27 11
-14 9 7 14 18 10 24 -4 6 0 8 10 4 10 -3 17 -2 17 4 0 10 34 26 55 26 6 0 12
-6 12 -13z m227 -34 c-18 -35 -21 -36 -21 -12 0 13 21 39 34 42 1 0 -5 -13
-13 -30z m4209 0 c-3 -12 -8 -19 -11 -16 -5 6 5 36 12 36 2 0 2 -9 -1 -20z
m-4318 0 c-9 -14 8 -13 23 2 7 7 12 10 12 7 0 -3 -11 -16 -25 -29 l-25 -24 4
25 c6 31 5 29 12 29 3 0 2 -4 -1 -10z m3730 -9 c-3 -6 -11 -11 -17 -11 -6 0
-6 6 2 15 14 17 26 13 15 -4z m576 -25 c17 10 9 -33 -8 -49 -29 -26 -47 -25
-47 3 -1 26 36 70 42 51 2 -6 8 -9 13 -5z m-1003 -96 c2 -5 9 -7 17 -4 7 3 16
1 19 -4 3 -5 -2 -9 -11 -8 -11 0 -18 -6 -18 -18 0 -12 -8 -20 -23 -22 -19 -3
-21 -2 -10 10 9 10 15 11 20 2 5 -7 8 -7 8 0 0 19 -11 23 -37 13 -16 -6 -22
-6 -18 1 9 14 -6 12 -35 -6 -23 -14 -23 -14 -3 -9 18 5 22 3 17 -9 -3 -9 -12
-16 -20 -16 -8 0 -14 -6 -14 -13 0 -8 -11 -19 -25 -25 -22 -10 -25 -9 -25 9 0
13 6 19 17 17 12 -2 18 4 19 20 1 23 -10 30 -21 12 -3 -5 -1 -10 4 -10 6 0 11
-4 11 -10 0 -5 -7 -7 -15 -4 -8 4 -23 0 -32 -7 -17 -13 -17 -12 0 13 21 34 22
45 2 28 -8 -7 -15 -9 -15 -4 0 4 -6 0 -13 -11 -8 -10 -18 -15 -24 -12 -6 4
-19 0 -29 -8 -10 -7 -29 -12 -40 -9 -15 4 -23 0 -28 -13 -6 -14 -5 -16 5 -5
23 22 32 13 14 -14 -9 -15 -12 -23 -6 -20 16 11 48 -2 48 -19 0 -8 -6 -16 -14
-19 -7 -3 -13 1 -13 9 0 28 -30 14 -51 -25 -7 -14 -12 -30 -11 -35 1 -6 -11
-18 -27 -28 -36 -21 -47 -22 -31 -2 7 8 8 15 2 15 -5 0 -15 -7 -22 -15 -7 -8
-16 -12 -21 -9 -5 3 -9 1 -9 -4 0 -6 8 -13 17 -16 15 -6 15 -8 0 -24 -15 -14
-22 -15 -49 -4 -42 16 -58 1 -33 -30 11 -13 13 -18 6 -11 -10 9 -20 9 -33 2
-18 -10 -19 -8 -13 13 22 71 69 140 139 205 86 81 175 130 249 139 29 4 54 9
57 11 8 8 115 -7 118 -17z m961 -1 c-7 -4 -16 -6 -20 -3 -4 2 -10 0 -14 -6 -3
-5 -1 -10 5 -10 6 0 5 -11 -5 -30 -9 -16 -23 -30 -31 -30 -10 0 -14 -6 -10
-15 3 -8 1 -15 -5 -15 -6 0 -7 -5 -3 -11 3 -6 -17 -33 -46 -61 -46 -46 -49
-47 -31 -17 11 19 28 48 37 64 9 17 20 32 24 35 3 3 21 30 40 61 26 44 37 55
52 51 15 -3 16 -7 7 -13z m-4206 -9 c-3 -12 -8 -19 -11 -16 -5 6 5 36 12 36 2
0 2 -9 -1 -20z m-250 -78 c-35 -32 -63 -63 -63 -70 0 -6 -7 -9 -15 -6 -8 4
-15 1 -15 -4 0 -6 -11 -23 -24 -37 -13 -14 -31 -36 -40 -48 -14 -20 -15 -20
-9 -2 10 30 71 112 88 119 8 3 15 12 15 21 0 8 3 14 8 13 7 -3 13 1 65 47 15
14 33 25 40 25 7 0 -16 -26 -50 -58z m3602 30 c-3 -3 -11 0 -18 7 -9 10 -8 11
6 5 10 -3 15 -9 12 -12z m140 -72 c6 -10 -105 47 -120 62 -5 5 18 -4 52 -22
34 -17 65 -35 68 -40z m-615 -144 c0 -3 -4 -8 -10 -11 -5 -3 -10 -1 -10 4 0 6
5 11 10 11 6 0 10 -2 10 -4z m-3272 -42 c1 -22 -2 -33 -8 -29 -6 4 -8 11 -5
16 3 5 -1 6 -9 3 -19 -7 -22 16 -4 34 19 19 23 15 26 -24z m3242 26 c0 -5 -5
-10 -11 -10 -5 0 -7 5 -4 10 3 6 8 10 11 10 2 0 4 -4 4 -10z m-3118 -52 c-7
-7 -12 -8 -12 -2 0 6 3 14 7 17 3 4 9 5 12 2 2 -3 -1 -11 -7 -17z m3034 9 c4
-4 0 -7 -9 -7 -9 0 -18 4 -21 9 -7 10 20 9 30 -2z m2742 8 c-11 -11 -68 -23
-68 -15 0 5 12 11 28 13 15 2 31 5 36 6 5 0 7 -1 4 -4z m157 -5 c-3 -5 -12
-10 -18 -10 -7 0 -6 4 3 10 19 12 23 12 15 0z m-285 -17 c-59 -26 -62 -28 -61
-38 0 -5 -10 -15 -22 -22 -31 -17 -45 -16 -21 1 18 14 16 15 -16 11 -19 -3
-46 -13 -60 -23 -47 -34 -54 -36 -34 -9 11 15 36 32 59 38 22 6 67 22 100 35
67 26 110 32 55 7z m2300 -13 c-6 -12 -14 -20 -17 -17 -2 3 1 14 8 26 17 26
24 19 9 -9z m-4030 -69 c0 -10 -3 -12 -8 -5 -8 12 -40 13 -59 1 -6 -4 -14 0
-17 9 -3 8 -2 12 3 9 5 -3 12 -2 15 3 9 15 66 1 66 -17z m103 -6 c-1 -6 -15
-11 -30 -12 l-28 -2 25 9 c21 7 18 8 -20 9 -28 1 -40 4 -32 10 17 10 88 -1 85
-14z m47 21 c0 -2 -7 -6 -15 -10 -8 -3 -15 -1 -15 4 0 6 7 10 15 10 8 0 15 -2
15 -4z m-927 -13 c-7 -2 -19 -2 -25 0 -7 3 -2 5 12 5 14 0 19 -2 13 -5z m37
-8 c0 -14 18 -19 115 -30 28 -3 106 -12 175 -21 69 -8 154 -14 190 -14 93 2
100 0 56 -16 -21 -7 -42 -11 -47 -8 -5 3 -21 -2 -36 -10 -37 -20 -118 -37
-137 -30 -11 4 -16 0 -16 -12 0 -14 -3 -15 -8 -6 -6 8 -44 15 -110 19 -86 5
-99 8 -84 19 16 12 16 13 -3 12 -11 -1 -33 2 -50 6 -29 7 -29 8 -11 22 18 13
15 14 -35 15 -30 1 -46 3 -36 6 12 3 16 10 12 24 -4 11 -2 19 5 19 6 0 8 5 5
10 -3 6 -1 10 4 10 6 0 11 -7 11 -15z m1110 7 c0 -4 30 -8 67 -9 38 -1 93 -3
123 -6 30 -2 93 -6 140 -7 47 -2 88 -9 92 -14 5 -7 8 -7 8 2 0 12 42 8 65 -7
6 -4 26 -8 45 -10 19 -2 37 -6 40 -10 9 -13 50 -20 50 -9 0 6 9 3 19 -6 11
-10 28 -16 38 -15 10 2 24 0 31 -4 7 -5 12 -3 12 5 0 8 -12 15 -27 16 -15 1
-30 6 -33 12 -3 5 -23 7 -45 4 -29 -3 -36 -1 -25 6 22 14 123 12 139 -2 11
-10 13 -10 7 0 -13 22 31 13 48 -10 8 -13 13 -16 10 -7 -4 12 2 15 28 13 18
-1 52 -2 75 -3 39 -1 43 -3 39 -23 -3 -19 -9 -23 -37 -21 -26 1 -29 0 -14 -6
11 -5 23 -7 28 -4 4 2 7 0 7 -4 0 -5 16 -16 35 -25 l35 -16 30 38 31 39 -51
-3 c-27 -1 -50 2 -50 7 0 5 25 7 55 6 46 -2 59 1 80 21 l25 23 0 -22 c0 -16 4
-21 15 -17 8 3 15 1 15 -4 0 -6 -7 -10 -15 -10 -8 0 -15 -5 -15 -11 0 -5 5 -7
10 -4 18 11 10 -14 -8 -27 -11 -7 -30 -33 -44 -58 -13 -25 -31 -45 -39 -45 -8
0 -16 -13 -19 -30 -7 -41 -39 -97 -51 -89 -6 4 -5 12 3 22 11 13 10 15 -5 9
-17 -6 -16 -4 2 19 23 29 27 44 11 44 -5 0 -10 -6 -10 -13 0 -17 -38 -53 -46
-44 -3 3 3 12 15 19 12 7 21 19 21 27 0 11 -5 9 -21 -5 l-22 -19 17 35 18 35
-27 -30 c-18 -21 -23 -23 -16 -9 9 19 6 24 -27 40 -20 10 -45 17 -54 16 -10 0
-18 3 -18 9 0 5 7 9 15 9 16 0 20 18 7 35 -9 13 -35 18 -27 5 3 -5 0 -10 -7
-11 -9 0 -10 -2 -1 -5 19 -8 4 -33 -18 -29 -10 2 -21 0 -24 -6 -10 -15 -35
-10 -35 6 0 8 -7 15 -15 15 -8 0 -15 8 -15 18 0 10 3 13 8 6 13 -20 38 -23 39
-5 1 13 -6 18 -28 18 -21 0 -29 -5 -29 -18 0 -20 -34 -31 -48 -17 -6 6 -19 7
-29 3 -10 -5 -24 -7 -32 -6 -9 2 -12 -3 -7 -14 5 -14 2 -16 -19 -11 -17 4 -27
2 -31 -7 -3 -8 -11 -14 -19 -14 -8 0 -12 4 -9 9 5 7 -19 12 -53 11 -7 -1 -13
3 -13 7 0 15 -72 22 -81 8 -7 -10 -9 -10 -9 0 0 6 -8 12 -18 12 -10 0 -24 -6
-31 -12 -11 -11 -13 -10 -8 3 4 13 -5 16 -59 18 -64 2 -91 5 -124 16 -10 3
-27 8 -38 10 -11 2 -32 10 -45 17 -20 11 -23 17 -16 37 7 17 12 21 22 13 8 -7
30 -6 72 3 33 8 78 12 100 10 37 -5 38 -4 10 5 -48 15 -128 22 -120 10 3 -5 0
-10 -9 -10 -8 0 -16 4 -18 10 -2 5 -17 6 -40 1 -24 -6 -41 -5 -49 3 -9 8 -10
8 -4 -3 6 -10 2 -12 -16 -6 -13 3 -32 9 -41 11 -22 7 -99 -17 -92 -27 8 -14
-9 -10 -30 6 -18 13 -15 20 7 16 16 -2 6 10 -15 19 -20 8 -19 9 12 10 26 0 31
3 20 10 -10 6 20 9 93 9 59 0 107 -3 107 -7z m-376 -36 c-13 -9 -30 -12 -45
-8 -22 6 -21 7 11 13 55 10 56 10 34 -5z m-114 -17 c0 -5 -10 -13 -21 -20 -17
-8 -20 -8 -14 1 4 7 2 16 -5 20 -7 5 -2 8 14 8 14 0 26 -4 26 -9z m37 5 c-3
-3 -12 -4 -19 -1 -8 3 -5 6 6 6 11 1 17 -2 13 -5z m1645 -26 c-7 -7 -12 -8
-12 -2 0 14 12 26 19 19 2 -3 -1 -11 -7 -17z m-205 -43 c0 -12 -11 -14 -45 -6
-2 1 0 6 3 11 10 15 42 12 42 -5z m720 -1 c-3 -3 -12 -4 -19 -1 -8 3 -5 6 6 6
11 1 17 -2 13 -5z m-2257 -28 c0 -3 -4 -8 -10 -11 -5 -3 -10 -1 -10 4 0 6 5
11 10 11 6 0 10 -2 10 -4z m2045 -16 c-3 -5 -12 -10 -18 -10 -7 0 -6 4 3 10
19 12 23 12 15 0z m-1245 -20 c11 -7 6 -8 -19 -5 -18 2 -36 6 -39 9 -9 10 42
6 58 -4z m2770 -5 c17 -9 30 -18 30 -21 0 -4 -59 23 -69 32 -10 9 13 3 39 -11z
m-1573 -1 c-3 -3 -12 -4 -19 -1 -8 3 -5 6 6 6 11 1 17 -2 13 -5z m-162 -34
c-3 -5 -14 -10 -23 -10 -15 0 -15 2 -2 10 20 13 33 13 25 0z m95 0 c0 -5 -2
-10 -4 -10 -3 0 -8 5 -11 10 -3 6 -1 10 4 10 6 0 11 -4 11 -10z m1705 -10 c10
-11 16 -20 13 -20 -3 0 -13 9 -23 20 -10 11 -16 20 -13 20 3 0 13 -9 23 -20z
m-248 -12 c-3 -8 -6 -5 -6 6 -1 11 2 17 5 13 3 -3 4 -12 1 -19z m-1617 -8 c-8
-5 -18 -6 -24 -3 -5 4 -1 10 10 13 24 9 34 2 14 -10z m-63 -30 c-14 -16 -27
-35 -30 -42 -2 -7 -8 -10 -12 -6 -4 4 0 14 9 23 21 22 20 23 -10 17 -16 -3
-23 -9 -20 -18 3 -9 -11 -20 -39 -33 -58 -26 -164 -119 -172 -151 -8 -30 -43
-71 -43 -49 0 8 -11 2 -26 -16 -17 -20 -22 -23 -15 -9 10 20 6 24 -30 38 -22
9 -37 21 -34 26 4 7 13 7 25 0 13 -7 21 -7 25 0 5 8 11 8 19 1 9 -8 23 0 50
29 58 61 194 167 250 194 69 34 83 33 53 -4z m2143 20 c0 -5 -2 -10 -4 -10 -3
0 -8 5 -11 10 -3 6 -1 10 4 10 6 0 11 -4 11 -10z m-2956 -42 c-3 -4 10 -5 28
-3 18 3 4 -3 -31 -14 -35 -10 -70 -17 -78 -14 -7 3 -13 0 -13 -6 0 -6 -9 -11
-19 -11 -11 0 -23 -4 -26 -10 -9 -15 -25 -12 -19 4 3 8 15 17 27 21 12 4 24 8
27 9 3 1 15 5 28 10 12 4 20 10 18 14 -2 4 11 7 29 8 19 0 32 -3 29 -8z m219
5 c-13 -2 -33 -2 -45 0 -13 2 -3 4 22 4 25 0 35 -2 23 -4z m2925 -28 c-6 -14
-13 -23 -15 -21 -5 5 15 46 22 46 3 0 -1 -11 -7 -25z m-2724 -8 c-5 -15 -2
-16 22 -7 33 13 41 6 23 -17 -13 -16 -12 -17 4 -4 9 7 17 20 17 27 0 8 4 14 8
14 4 0 7 -17 7 -37 -1 -21 3 -44 9 -52 8 -11 8 -13 -1 -8 -6 4 -13 2 -15 -4
-2 -7 -17 0 -36 16 -28 23 -31 30 -20 43 8 10 9 13 1 9 -14 -9 -45 2 -37 14 3
5 -1 6 -9 3 -8 -3 -17 1 -19 8 -4 9 4 13 23 13 23 0 28 -4 23 -18z m36 13 c0
-5 -5 -10 -11 -10 -5 0 -7 5 -4 10 3 6 8 10 11 10 2 0 4 -4 4 -10z m110 -68
c0 -15 -2 -15 -10 -2 -13 20 -13 33 0 25 6 -3 10 -14 10 -23z m1140 -6 c0 -3
-4 -8 -10 -11 -5 -3 -10 -1 -10 4 0 6 5 11 10 11 6 0 10 -2 10 -4z m-1502 -83
c-10 -2 -26 -2 -35 0 -10 3 -2 5 17 5 19 0 27 -2 18 -5z m-192 -10 c-4 -4 -26
-12 -49 -19 -23 -6 -51 -14 -62 -18 -20 -7 -20 -7 0 5 32 21 127 48 111 32z
m311 -7 c3 -3 -7 -6 -23 -7 -16 0 -37 -2 -47 -4 -9 -2 -15 0 -12 5 3 5 -1 10
-7 13 -7 2 8 3 35 2 26 -1 50 -5 54 -9z m1323 -6 c-8 -5 -19 -10 -25 -10 -5 0
-3 5 5 10 8 5 20 10 25 10 6 0 3 -5 -5 -10z m-4480 -10 c0 -5 -2 -10 -4 -10
-3 0 -8 5 -11 10 -3 6 -1 10 4 10 6 0 11 -4 11 -10z m-110 -10 c-20 -13 -43
-13 -35 0 3 6 16 10 28 10 18 0 19 -2 7 -10z m4499 -63 c-30 -29 -67 -68 -83
-87 l-27 -35 22 40 c24 43 128 149 137 140 4 -3 -19 -29 -49 -58z m-5239 33
c0 -5 -8 -10 -17 -10 -15 0 -16 2 -3 10 19 12 20 12 20 0z m-30 -25 c0 -12
-29 -3 -34 10 -4 13 -2 14 14 5 11 -6 20 -13 20 -15z m3081 -18 c-8 -8 -14 -7
-23 2 -11 11 -10 13 5 8 15 -6 17 -3 12 16 -5 20 -5 20 6 4 8 -14 8 -22 0 -30z
m469 34 c0 -4 -15 -11 -32 -14 -18 -3 -42 -8 -53 -11 -11 -4 -2 3 20 14 43 21
65 25 65 11z m678 -14 c-9 -6 -20 -21 -26 -32 -9 -15 -11 -16 -12 -4 0 18 39
63 48 55 3 -4 -1 -12 -10 -19z m-808 -22 c0 -8 -4 -15 -10 -15 -5 0 -10 7 -10
15 0 8 5 15 10 15 6 0 10 -7 10 -15z m-360 -27 c0 -6 -6 -5 -15 2 -8 7 -15 14
-15 16 0 2 7 1 15 -2 8 -4 15 -11 15 -16z m1100 -12 c-14 -14 -24 0 -16 21 6
15 8 15 16 3 6 -9 5 -19 0 -24z m904 -10 c-26 -25 -50 -45 -53 -44 -28 3 -61
-4 -57 -11 7 -10 -34 -73 -51 -79 -23 -7 -14 17 17 45 17 14 28 28 25 31 -5 5
-85 -47 -85 -55 0 -2 5 -1 10 2 6 3 10 2 10 -3 0 -5 -9 -12 -21 -15 -14 -4
-20 -13 -19 -29 3 -37 1 -46 -16 -62 -20 -20 -34 -20 -34 -1 0 8 5 15 10 15 6
0 10 5 10 11 0 8 -5 7 -15 -1 -26 -21 -30 -2 -6 30 14 20 17 30 9 30 -7 0 5
11 27 24 22 12 77 46 123 74 46 29 89 52 96 52 7 0 21 7 32 15 41 31 34 13
-12 -29z m-1688 5 c-10 -11 -20 -39 -24 -63 l-6 -43 -7 35 c-7 30 -4 39 19 63
29 30 45 38 18 8z m-196 -15 c0 -3 -4 -8 -10 -11 -5 -3 -10 -1 -10 4 0 6 5 11
10 11 6 0 10 -2 10 -4z m30 -10 c0 -16 43 -26 85 -19 l30 5 -33 -21 c-18 -12
-36 -21 -41 -21 -5 0 -14 -7 -21 -15 -7 -8 -20 -15 -29 -15 -14 0 -14 2 -1 11
11 7 -13 9 -82 7 -85 -3 -120 -10 -107 -22 2 -2 38 0 79 4 41 4 79 3 85 -1 5
-5 1 -9 -11 -9 -30 0 -114 -30 -114 -41 0 -11 14 -11 63 0 32 8 37 7 33 -5 -4
-11 -2 -12 14 -4 10 5 54 10 97 9 63 0 73 -2 53 -10 -14 -6 -40 -9 -57 -7 -18
2 -33 0 -33 -4 0 -13 -28 -9 -32 4 -3 8 -9 8 -19 2 -8 -5 -48 -10 -89 -10 -87
-1 -128 -8 -143 -23 -6 -6 -18 -11 -26 -10 -9 0 -6 4 8 10 36 14 22 18 -34 9
-27 -4 -51 -7 -53 -5 -1 1 4 15 13 31 13 25 15 26 15 8 0 -20 4 -21 33 -14 56
13 70 22 55 31 -7 5 -23 9 -35 9 -12 0 -24 4 -27 9 -3 4 6 6 19 3 20 -3 24 -1
19 11 -4 12 -16 15 -52 10 -50 -6 -69 -13 -34 -13 42 0 33 -20 -10 -21 -24 0
-52 -3 -63 -5 -44 -11 -372 -29 -364 -20 3 3 46 8 95 10 105 5 166 15 159 26
-7 12 -134 3 -169 -12 -23 -9 -31 -9 -34 0 -4 13 -34 16 -45 6 -3 -4 -27 -7
-52 -8 -37 -1 -43 1 -30 10 12 9 13 13 3 17 -8 4 -7 6 5 6 9 1 17 -4 17 -10 0
-7 7 -8 18 -4 24 10 50 14 107 20 28 2 74 7 103 10 28 3 52 2 52 -3 0 -5 33
-3 73 4 214 40 269 48 342 50 44 1 97 2 119 3 30 1 37 4 32 16 -3 8 -1 15 4
15 6 0 10 -6 10 -14z m955 -6 c3 -5 1 -10 -4 -10 -6 0 -11 5 -11 10 0 6 2 10
4 10 3 0 8 -4 11 -10z m-2522 -7 c-7 -2 -19 -2 -25 0 -7 3 -2 5 12 5 14 0 19
-2 13 -5z m75 0 c-10 -2 -28 -2 -40 0 -13 2 -5 4 17 4 22 1 32 -1 23 -4z
m-968 -64 c-25 -3 -47 -5 -49 -3 -9 8 44 20 68 15 22 -4 18 -6 -19 -12z m-97
4 c-13 -2 -33 -2 -45 0 -13 2 -3 4 22 4 25 0 35 -2 23 -4z m3864 -19 c-3 -3
-12 -4 -19 -1 -8 3 -5 6 6 6 11 1 17 -2 13 -5z m-4354 -21 c-7 -2 -19 -2 -25
0 -7 3 -2 5 12 5 14 0 19 -2 13 -5z m102 -3 c3 -6 -1 -7 -9 -4 -18 7 -21 14
-7 14 6 0 13 -4 16 -10z m178 3 c-13 -2 -35 -2 -50 0 -16 2 -5 4 22 4 28 0 40
-2 28 -4z m82 -3 c-3 -5 -11 -10 -16 -10 -6 0 -7 5 -4 10 3 6 11 10 16 10 6 0
7 -4 4 -10z m1665 6 c0 -2 -11 -6 -25 -8 -13 -3 -22 -1 -19 3 5 9 44 13 44 5z
m-122 -13 c-35 -5 -37 -22 -3 -18 14 1 28 -2 31 -6 5 -8 -18 -14 -40 -10 -5 1
-16 -1 -24 -4 -11 -4 -12 -8 -2 -20 10 -12 9 -15 -4 -15 -9 0 -16 7 -16 15 0
11 -11 15 -36 15 -32 0 -35 -2 -24 -15 8 -10 21 -13 33 -9 17 5 18 4 7 -8 -7
-7 -27 -13 -44 -13 -96 4 -99 4 -87 19 8 10 9 16 1 21 -6 3 -8 11 -5 16 4 5 1
9 -4 9 -6 0 -11 -4 -11 -9 0 -5 -7 -12 -16 -15 -9 -4 -13 -2 -8 5 4 7 1 10 -7
7 -8 -3 -19 -15 -26 -28 -8 -17 -22 -25 -45 -27 -24 -3 -29 -1 -18 6 8 5 18 7
22 5 4 -3 8 -1 8 4 0 14 -69 20 -74 7 -3 -6 -9 -4 -15 5 -15 22 -13 33 5 26 8
-3 13 -2 10 3 -3 4 7 9 22 10 15 0 45 3 67 4 109 9 186 14 155 10 -57 -7 -63
-25 -6 -20 27 3 52 10 55 15 10 15 33 20 81 20 28 -1 34 -3 18 -5z m57 -3 c-3
-5 -10 -10 -16 -10 -5 0 -9 5 -9 10 0 6 7 10 16 10 8 0 12 -4 9 -10z m2619
-35 c-20 -25 -40 -45 -44 -45 -4 0 -15 -16 -24 -35 -9 -19 -21 -37 -26 -40 -6
-3 -10 -11 -10 -16 0 -6 5 -7 10 -4 6 3 10 2 10 -4 0 -24 -18 -17 -35 15 -14
26 -16 37 -7 46 17 17 15 31 -4 24 -8 -3 -22 0 -29 8 -16 16 -7 30 10 16 8 -6
18 -5 31 5 18 13 16 14 -23 15 -28 0 -43 -4 -43 -12 0 -9 -3 -9 -8 -2 -4 5
-23 15 -42 21 -27 8 -30 11 -12 12 12 1 31 7 42 13 16 10 24 10 40 0 11 -6 23
-12 27 -12 5 0 1 5 -7 10 -8 5 -10 10 -4 10 6 0 17 -7 24 -15 9 -11 17 -12 31
-4 14 7 19 7 17 -3 -6 -26 38 -19 67 12 44 46 51 36 9 -15z m-2567 9 c-3 -3
-12 -4 -19 -1 -8 3 -5 6 6 6 11 1 17 -2 13 -5z m83 -9 c0 -9 -50 -10 -53 0 -3
7 5 10 24 7 16 -2 29 -5 29 -7z m-616 -10 c4 -11 -2 -15 -27 -16 -18 -1 -44
-3 -59 -5 -16 -1 -28 1 -28 7 0 5 -15 10 -32 10 l-33 2 35 6 c73 14 137 12
144 -4z m986 6 c0 -5 -9 -11 -20 -14 -22 -6 -28 8 -7 16 19 8 27 8 27 -2z
m-1222 -13 c-3 -7 -18 -14 -34 -16 l-29 -2 25 14 c31 19 43 20 38 4z m440 -11
c-13 -15 -38 -18 -38 -6 0 7 18 14 43 18 4 0 2 -5 -5 -12z m-602 -6 c-3 -5 1
-12 10 -15 28 -11 38 -6 18 9 -25 19 -11 19 26 0 41 -21 38 -35 -7 -33 -80 3
-113 -2 -113 -16 0 -7 -14 -16 -31 -20 -42 -8 -114 -8 -106 1 4 3 25 6 48 5
33 -2 40 1 35 13 -3 10 1 15 12 16 9 1 24 2 32 3 8 0 15 8 15 16 0 9 13 18 30
21 17 4 31 7 33 8 2 0 1 -3 -2 -8z m267 2 c-7 -2 -19 -2 -25 0 -7 3 -2 5 12 5
14 0 19 -2 13 -5z m917 -3 c0 -5 -5 -10 -11 -10 -5 0 -7 5 -4 10 3 6 8 10 11
10 2 0 4 -4 4 -10z m65 0 c3 -5 -1 -10 -10 -10 -9 0 -13 5 -10 10 3 6 8 10 10
10 2 0 7 -4 10 -10z m-1340 -10 c3 -5 1 -10 -4 -10 -6 0 -11 5 -11 10 0 6 2
10 4 10 3 0 8 -4 11 -10z m1140 0 c-17 -7 -17 -9 -2 -9 9 -1 17 -6 17 -11 0
-7 -6 -7 -17 -2 -10 5 -25 7 -33 5 -13 -4 -13 -3 0 6 13 9 13 11 -2 11 -10 0
-18 -5 -18 -11 0 -6 -7 -9 -15 -5 -8 3 -15 1 -15 -3 0 -11 -89 -11 -95 -1 -2
4 16 8 40 8 24 1 54 6 67 11 13 6 39 10 58 10 28 0 31 -2 15 -9z m304 -7 c-13
-15 -11 -16 14 -11 18 4 26 1 24 -6 -2 -6 -15 -9 -28 -6 -13 2 -41 4 -61 5
-52 0 -47 11 10 23 26 5 49 10 51 11 2 0 -3 -6 -10 -16z m129 4 c26 0 37 -2
25 -4 -25 -5 -32 -23 -9 -23 8 0 16 -7 20 -15 3 -9 0 -15 -8 -15 -7 0 -19 -7
-26 -15 -7 -8 -16 -12 -22 -9 -5 3 -15 0 -23 -6 -9 -7 -15 -8 -15 -2 0 5 7 15
15 22 12 10 13 16 5 24 -8 8 -17 5 -31 -13 -10 -13 -19 -18 -19 -12 0 15 -93
14 -109 -1 -9 -9 -12 -9 -7 -1 3 6 -1 13 -11 16 -10 3 10 5 45 6 75 1 109 15
92 37 -7 7 -16 11 -21 8 -5 -3 -9 0 -9 6 0 8 10 9 30 5 17 -4 52 -7 78 -8z
m-1601 -3 c-3 -3 -12 -4 -19 -1 -8 3 -5 6 6 6 11 1 17 -2 13 -5z m531 1 c-10
-10 -49 -14 -43 -4 4 5 16 9 27 9 12 0 19 -2 16 -5z m42 1 c0 -2 -7 -7 -16
-10 -8 -3 -12 -2 -9 4 6 10 25 14 25 6z m-698 -18 c-19 -5 -30 -13 -26 -19 3
-6 -5 -3 -20 6 -14 10 -26 13 -26 8 0 -5 -15 -7 -34 -5 -19 2 -43 -1 -53 -7
-17 -10 -16 -10 5 -11 24 0 29 -14 10 -26 -6 -4 -8 -3 -5 3 4 6 -7 13 -24 17
-52 10 -72 8 -66 -9 5 -12 2 -12 -18 -3 -13 6 -22 15 -19 19 3 5 -2 9 -10 9
-10 0 -13 -6 -10 -15 5 -12 -2 -15 -34 -15 -48 0 -60 12 -29 29 27 14 156 21
163 9 3 -5 12 -4 20 3 8 6 14 9 14 6 0 -4 10 -3 23 2 12 5 56 9 97 9 63 0 70
-2 42 -10z m423 2 c3 -5 -1 -10 -10 -10 -9 0 -13 5 -10 10 3 6 8 10 10 10 2 0
7 -4 10 -10z m83 3 c-10 -2 -28 -2 -40 0 -13 2 -5 4 17 4 22 1 32 -1 23 -4z
m49 1 c-3 -3 -12 -4 -19 -1 -8 3 -5 6 6 6 11 1 17 -2 13 -5z m33 -4 c0 -5 -10
-15 -22 -21 l-23 -12 20 21 c23 24 25 25 25 12z m434 -2 c-3 -4 -14 -8 -25 -8
-11 0 -18 4 -14 9 3 6 14 9 25 8 10 -1 16 -5 14 -9z m376 2 c0 -5 -4 -10 -10
-10 -5 0 -10 5 -10 10 0 6 5 10 10 10 6 0 10 -4 10 -10z m88 -17 c2 -17 -2
-23 -14 -23 -14 0 -15 -3 -6 -12 7 -7 12 -16 12 -21 0 -5 -8 0 -17 11 -25 28
-90 20 -95 -12 -2 -13 -11 -21 -23 -22 -15 -1 -16 0 -2 3 10 3 17 14 17 28 0
24 -21 38 -44 29 -8 -3 -17 -1 -21 5 -3 6 0 11 7 12 7 0 21 2 31 4 9 2 17 -1
17 -7 0 -6 7 -8 15 -4 8 3 15 0 15 -6 0 -6 10 0 22 13 14 17 19 19 15 7 -4
-12 -1 -18 7 -18 9 0 12 7 9 18 -3 14 2 18 24 17 21 0 29 -5 31 -22z m322 10
c0 -10 -4 -14 -8 -8 -4 6 -11 13 -16 18 -5 4 -2 7 7 7 10 0 17 -8 17 -17z
m-993 -13 c11 -16 10 -18 -1 -14 -15 6 -30 34 -18 34 4 0 13 -9 19 -20z m-52
0 c-27 -12 -35 -12 -35 0 0 6 12 10 28 9 24 0 25 -1 7 -9z m189 -6 c8 -22 9
-22 -20 -18 -15 1 -32 8 -38 15 -8 9 -5 10 16 7 15 -3 25 -1 22 3 -3 5 -1 9 4
9 6 0 13 -7 16 -16z m26 -5 c0 -6 -4 -7 -10 -4 -5 3 -10 11 -10 16 0 6 5 7 10
4 6 -3 10 -11 10 -16z m169 -5 l-34 -12 29 -1 c38 -1 31 -8 -16 -15 -28 -4
-37 -2 -42 11 -5 13 -4 14 9 3 13 -11 14 -10 9 4 -6 15 10 22 39 17 4 0 7 3 7
9 0 5 8 6 17 3 13 -5 9 -9 -18 -19z m-1559 4 c0 -10 -17 -12 -62 -9 -69 4 -56
17 19 20 29 1 43 -3 43 -11z m940 8 c0 -2 -7 -6 -15 -10 -8 -3 -15 -1 -15 4 0
6 7 10 15 10 8 0 15 -2 15 -4z m65 -16 c-10 -11 -20 -18 -23 -15 -7 6 18 35
31 35 5 0 2 -9 -8 -20z m655 10 c0 -5 -4 -10 -9 -10 -6 0 -13 5 -16 10 -3 6 1
10 9 10 9 0 16 -4 16 -10z m30 0 c0 -5 -2 -10 -4 -10 -3 0 -8 5 -11 10 -3 6
-1 10 4 10 6 0 11 -4 11 -10z m-1853 -6 c-3 -3 -12 -4 -19 -1 -8 3 -5 6 6 6
11 1 17 -2 13 -5z m33 -4 c0 -5 -2 -10 -4 -10 -3 0 -8 5 -11 10 -3 6 -1 10 4
10 6 0 11 -4 11 -10z m555 -2 c3 -3 -15 -9 -40 -15 -25 -6 -48 -6 -51 -2 -3 5
5 9 18 9 16 0 19 3 10 9 -8 5 0 7 23 6 20 -1 38 -4 40 -7z m472 6 c-3 -3 -12
-4 -19 -1 -8 3 -5 6 6 6 11 1 17 -2 13 -5z m-67 -23 c-12 -24 -13 -34 -2 -27
5 3 9 -1 9 -9 0 -8 -7 -15 -14 -15 -8 0 -11 5 -8 10 3 6 0 10 -9 10 -11 0 -9
6 7 25 27 30 31 31 17 6z m-193 3 c-3 -3 -12 -4 -19 -1 -8 3 -5 6 6 6 11 1 17
-2 13 -5z m1023 -4 c0 -5 -2 -10 -4 -10 -3 0 -8 5 -11 10 -3 6 -1 10 4 10 6 0
11 -4 11 -10z m47 4 c-3 -3 -12 -4 -19 -1 -8 3 -5 6 6 6 11 1 17 -2 13 -5z
m40 -16 c-3 -8 -6 -5 -6 6 -1 11 2 17 5 13 3 -3 4 -12 1 -19z m277 2 c-10 -4
-21 -6 -24 -3 -8 7 24 22 34 16 5 -4 1 -10 -10 -13z m225 3 c-8 -10 -21 -29
-27 -43 -19 -37 -41 -64 -47 -58 -10 9 15 62 43 91 28 30 54 38 31 10z m-1329
-2 c0 -5 -16 -11 -35 -13 -19 -2 -35 -1 -35 3 0 4 15 10 33 12 17 2 33 5 35 5
1 1 2 -2 2 -7z m185 0 c7 -12 -23 -21 -58 -17 -41 4 -43 14 -3 11 20 -1 36 2
36 7 0 11 17 10 25 -1z m99 -3 c-3 -5 -14 -6 -25 -3 -11 4 -19 2 -19 -6 0 -8
-3 -9 -13 0 -8 6 -18 7 -22 3 -5 -4 -5 -1 -1 5 4 7 24 12 46 11 22 -1 37 -5
34 -10z m214 5 c-11 -3 -15 -11 -12 -21 4 -10 3 -13 -3 -6 -4 6 -17 16 -28 22
-17 10 -15 11 20 11 22 -1 32 -3 23 -6z m442 -4 c0 -4 -15 -9 -33 -11 -19 -2
-34 1 -34 7 0 5 15 10 34 10 18 0 33 -3 33 -6z m-1200 -9 c0 -5 -19 -9 -42 -9
l-43 2 40 7 c22 4 41 8 43 9 1 0 2 -3 2 -9z m696 -5 c14 -13 14 -15 0 -15 -9
0 -16 4 -16 9 0 5 -12 12 -27 14 l-28 4 28 2 c16 0 35 -6 43 -14z m-639 -1
c-3 -3 -12 -4 -19 -1 -8 3 -5 6 6 6 11 1 17 -2 13 -5z m829 -5 c3 -6 19 -9 35
-7 17 3 34 -1 40 -9 9 -10 8 -13 -2 -13 -11 0 -11 -2 1 -10 12 -8 9 -10 -12
-10 -29 0 -38 14 -15 24 6 4 -5 4 -25 2 -21 -3 -40 0 -43 5 -4 5 0 9 7 9 9 0
9 3 -2 10 -9 6 -10 10 -3 10 6 0 15 -5 19 -11z m-601 -9 c3 -5 1 -10 -4 -10
-6 0 -11 5 -11 10 0 6 2 10 4 10 3 0 8 -4 11 -10z m990 -9 c-3 -6 -11 -11 -17
-11 -6 0 -6 6 2 15 14 17 26 13 15 -4z m371 6 c-27 -17 -47 -37 -73 -72 -12
-17 -24 -27 -28 -23 -6 6 17 37 62 85 12 13 30 23 40 22 17 0 17 -1 -1 -12z
m-1571 -7 c3 -5 1 -10 -4 -10 -6 0 -11 5 -11 10 0 6 2 10 4 10 3 0 8 -4 11
-10z m280 0 c3 -5 1 -10 -4 -10 -6 0 -11 5 -11 10 0 6 2 10 4 10 3 0 8 -4 11
-10z m145 -4 c0 -2 -17 -3 -37 -3 -32 -1 -34 0 -13 6 21 7 50 4 50 -3z m297
-10 c-8 -9 -14 -10 -18 -4 -4 6 -12 7 -19 3 -9 -6 -11 -4 -6 4 5 7 14 10 22 7
8 -3 14 -1 14 5 0 6 4 7 10 4 6 -4 5 -11 -3 -19z m213 14 c0 -5 -7 -7 -15 -4
-8 4 -15 8 -15 10 0 2 7 4 15 4 8 0 15 -4 15 -10z m-1005 -10 c4 -7 -3 -9 -22
-5 -19 5 -24 4 -15 -3 11 -7 9 -10 -7 -15 -18 -4 -19 -2 -10 14 10 20 44 26
54 9z m412 4 c-3 -3 -12 -4 -19 -1 -8 3 -5 6 6 6 11 1 17 -2 13 -5z m771 -5
c6 17 42 13 42 -4 0 -8 -5 -15 -11 -15 -5 0 -7 5 -4 10 3 6 2 10 -4 10 -5 0
-12 -4 -16 -9 -3 -6 -18 -8 -33 -7 -15 2 -34 5 -42 6 -11 1 -9 4 5 9 11 5 29
4 40 -2 13 -7 20 -7 23 2z m-482 -11 c4 -5 2 -9 -4 -9 -37 -4 -46 -3 -49 6 -4
12 41 14 53 3z m324 2 c0 -5 -10 -10 -22 -9 -22 0 -22 1 -3 9 11 5 21 9 23 9
1 1 2 -3 2 -9z m-535 -19 c-3 -6 -17 -11 -31 -11 -14 0 -23 4 -20 9 3 5 15 7
26 4 12 -3 20 0 20 8 0 7 3 10 6 6 3 -3 3 -10 -1 -16z m140 9 c3 -5 2 -10 -4
-10 -5 0 -13 5 -16 10 -3 6 -2 10 4 10 5 0 13 -4 16 -10z m-55 -12 c0 -4 -7
-8 -15 -8 -8 0 -15 4 -15 8 0 5 7 9 15 9 8 0 15 -4 15 -9z m-560 -14 c0 -2 -7
-4 -15 -4 -8 0 -15 4 -15 10 0 5 7 7 15 4 8 -4 15 -8 15 -10z m170 12 c0 -11
-19 -15 -25 -6 -3 5 1 10 9 10 9 0 16 -2 16 -4z m130 0 c0 -3 -4 -8 -10 -11
-5 -3 -10 -1 -10 4 0 6 5 11 10 11 6 0 10 -2 10 -4z m107 -2 c-3 -3 -12 -4
-19 -1 -8 3 -5 6 6 6 11 1 17 -2 13 -5z m327 -3 c6 -10 -26 -21 -64 -21 -20 0
-22 -2 -10 -10 8 -5 12 -10 8 -11 -5 -1 -12 -3 -18 -4 -5 -1 -16 -3 -22 -4 -7
-2 -4 -6 7 -11 18 -8 17 -9 -7 -9 -34 -1 -35 9 -4 36 46 41 97 56 110 34z
m181 -17 c-20 -21 -19 -27 4 -19 11 3 22 2 25 -4 8 -12 -18 -21 -34 -11 -7 4
-25 4 -41 0 -15 -5 -30 -6 -33 -2 -3 3 -6 1 -6 -5 0 -5 -10 -9 -22 -7 -13 1
-33 3 -46 3 -13 1 -20 6 -17 11 3 6 -4 11 -17 11 -23 2 -23 2 -1 6 12 2 31 -1
42 -7 17 -9 21 -8 21 5 0 10 10 15 31 15 16 0 28 4 25 8 -2 4 4 8 15 8 21 0
25 -12 7 -19 -7 -3 -3 -6 9 -6 17 -1 21 3 16 16 -4 11 -3 14 5 9 7 -4 12 -2
12 4 0 6 5 8 10 5 6 -4 4 -12 -5 -21z m80 16 c-3 -5 -15 -10 -26 -10 -10 0
-19 5 -19 10 0 6 12 10 26 10 14 0 23 -4 19 -10z m-1016 -27 c2 -2 -5 -3 -16
-3 -11 0 -20 7 -20 15 0 12 3 12 16 3 9 -7 18 -14 20 -15z m67 12 c-4 -10 3
-17 22 -21 48 -10 48 -13 2 -9 -25 2 -47 4 -50 5 -3 1 -8 2 -11 2 -4 -1 -5 8
-2 18 3 12 14 20 25 20 14 0 18 -5 14 -15z m79 5 c3 -6 -4 -10 -17 -10 -18 0
-20 2 -8 10 19 12 18 12 25 0z m130 0 c3 -5 -1 -10 -10 -10 -9 0 -13 5 -10 10
3 6 8 10 10 10 2 0 7 -4 10 -10z m-45 -4 c0 -3 -4 -8 -10 -11 -5 -3 -10 -1
-10 4 0 6 5 11 10 11 6 0 10 -2 10 -4z m290 0 c0 -2 -7 -7 -16 -10 -8 -3 -12
-2 -9 4 6 10 25 14 25 6z m-329 -20 c5 3 9 0 9 -5 0 -6 -11 -10 -25 -9 -14 1
-25 6 -25 9 0 11 25 17 28 7 2 -4 8 -6 13 -2z m349 -6 c0 -5 -9 -10 -21 -10
-11 0 -17 5 -14 10 3 6 13 10 21 10 8 0 14 -4 14 -10z m690 1 c0 -5 -7 -14
-15 -21 -12 -10 -15 -10 -15 2 0 8 3 18 7 21 9 10 23 9 23 -2z m-202 -16 c-2
-6 -7 -9 -12 -7 -4 1 -14 -3 -22 -9 -19 -16 -18 -4 2 16 17 17 38 17 32 0z
m57 5 c-3 -5 -13 -10 -21 -10 -8 0 -12 5 -9 10 3 6 13 10 21 10 8 0 12 -4 9
-10z m-758 -22 c-3 -8 -6 -5 -6 6 -1 11 2 17 5 13 3 -3 4 -12 1 -19z m-252
-18 c8 0 15 -4 15 -9 0 -6 -10 -8 -22 -6 -12 3 -31 -3 -42 -13 -20 -16 -20
-16 -7 1 8 10 9 17 3 17 -6 0 -13 -4 -16 -9 -5 -8 -34 -8 -43 -1 -2 2 -7 3
-12 4 -5 0 -13 4 -17 8 -3 4 4 5 17 3 13 -3 41 -3 61 1 28 4 36 9 32 22 -5 15
-4 15 6 0 6 -10 18 -18 25 -18z m192 8 c-10 -5 -26 -6 -37 -3 -11 4 -20 3 -20
-2 0 -4 -11 -13 -23 -19 -19 -8 -24 -8 -24 4 0 8 9 17 19 20 10 2 16 7 14 11
-2 3 17 4 42 2 35 -2 42 -5 29 -13z m143 12 c0 -5 5 -10 11 -10 5 0 7 5 3 12
-5 7 -3 8 5 3 9 -5 10 -10 2 -18 -7 -7 -15 -6 -27 4 -16 12 -17 12 -11 -4 6
-16 5 -16 -21 0 -15 9 -29 18 -31 20 -2 2 12 3 32 3 21 0 37 -4 37 -10z m200
0 c0 -5 -12 -10 -27 -9 -25 0 -26 1 -8 9 27 12 35 12 35 0z m108 -8 c2 -7 -3
-12 -12 -12 -9 0 -16 7 -16 16 0 17 22 14 28 -4z m442 -2 c-8 -5 -17 -7 -19
-4 -3 3 1 9 9 14 8 5 17 7 19 4 3 -3 -1 -9 -9 -14z m-1641 -11 c4 6 15 9 25 5
27 -10 -1 -24 -49 -24 -22 0 -60 -5 -84 -11 -34 -8 -46 -7 -52 3 -13 19 -11
28 5 22 8 -3 17 -1 21 5 3 6 16 11 28 11 21 -1 21 -1 -3 -16 -25 -15 -24 -15
14 -10 22 3 47 12 55 21 14 13 16 13 24 -1 7 -12 11 -13 16 -5z m1028 5 c9 -8
22 -13 29 -10 8 3 11 0 7 -10 -3 -7 -1 -14 4 -14 10 0 33 -43 33 -61 0 -16
-25 -4 -26 12 -1 8 -2 21 -3 29 -1 13 -2 13 -11 0 -8 -12 -10 -12 -10 -1 0 13
-28 40 -42 41 -4 0 -5 -6 -2 -13 3 -8 -3 -20 -12 -28 -16 -12 -17 -12 -12 2 3
9 2 22 -3 30 -5 8 -9 9 -9 3 0 -6 -18 -11 -41 -12 -24 -1 -38 2 -34 8 3 5 19
8 35 6 20 -2 27 1 23 10 -3 9 2 11 18 7 15 -4 20 -3 15 5 -11 18 23 15 41 -4z
m370 -1 c0 -7 -9 -13 -19 -13 -10 0 -21 -7 -24 -15 -3 -8 -25 -17 -49 -21 -27
-4 -51 -15 -64 -30 -11 -13 -26 -24 -32 -24 -5 0 -7 -6 -4 -12 3 -7 -1 -3 -10
9 -17 22 -48 22 -39 -1 3 -7 -6 -12 -22 -14 -15 -1 -32 -6 -38 -11 -16 -12
-76 -19 -82 -9 -3 4 6 8 20 8 14 0 28 5 31 11 4 6 13 8 21 5 8 -3 14 -2 14 3
0 5 10 12 23 15 l22 7 -22 9 c-13 5 -23 14 -23 19 0 12 37 24 49 17 5 -4 16 1
24 9 18 18 52 21 41 4 -5 -9 1 -10 22 -5 16 4 43 7 61 6 17 0 35 5 39 11 5 9
-1 10 -20 5 -35 -9 -34 10 2 22 40 13 79 11 79 -5z m46 -1 c-2 -10 -11 -19
-19 -19 -11 0 -11 3 -1 16 9 12 9 13 0 7 -7 -4 -13 -2 -13 3 0 6 9 11 19 11
14 0 18 -5 14 -18z m-2170 1 c-7 -2 -21 -2 -30 0 -10 3 -4 5 12 5 17 0 24 -2
18 -5z m1992 -3 c3 -5 1 -10 -4 -10 -6 0 -11 5 -11 10 0 6 2 10 4 10 3 0 8 -4
11 -10z m-645 -14 c-6 -8 -18 -12 -26 -9 -23 9 -16 23 12 23 22 0 24 -2 14
-14z m177 8 c-3 -3 -12 -4 -19 -1 -8 3 -5 6 6 6 11 1 17 -2 13 -5z m329 -15
c-24 -19 -46 -19 -46 1 0 8 18 14 53 17 15 2 13 -2 -7 -18z m349 11 c-3 -5
-10 -10 -16 -10 -5 0 -9 5 -9 10 0 6 7 10 16 10 8 0 12 -4 9 -10z m-3168 -6
c-3 -3 -12 -4 -19 -1 -8 3 -5 6 6 6 11 1 17 -2 13 -5z m-91 -13 c-3 -5 -15 -7
-26 -4 -28 7 -25 13 6 13 14 0 23 -4 20 -9z m891 3 c-3 -3 -12 -4 -19 -1 -8 3
-5 6 6 6 11 1 17 -2 13 -5z m708 -4 c3 -5 -1 -10 -9 -10 -9 0 -16 5 -16 10 0
6 4 10 9 10 6 0 13 -4 16 -10z m928 3 c-13 -2 -35 -2 -50 0 -16 2 -5 4 22 4
28 0 40 -2 28 -4z m97 -20 c0 -21 3 -24 9 -14 8 12 12 13 25 1 14 -11 16 -10
10 4 -4 11 -1 16 12 15 30 -2 81 -17 62 -18 -9 0 -18 -7 -21 -13 -3 -9 -10 -7
-21 7 -17 20 -17 20 -11 -2 5 -19 2 -23 -19 -23 -13 0 -37 5 -53 12 -15 6 -34
12 -41 14 -28 5 -24 14 6 14 34 0 44 15 15 23 -14 4 -12 5 5 6 18 1 22 -4 22
-26z m-3105 -12 c-9 -16 -25 -3 -18 15 4 10 9 12 15 6 6 -6 7 -15 3 -21z m183
14 c9 -9 -72 -5 -87 4 -8 5 5 7 34 5 27 -2 50 -6 53 -9z m232 8 c-8 -3 -21
-11 -29 -17 -12 -9 -13 -8 -6 3 6 11 3 13 -18 7 -14 -3 -29 -2 -32 4 -4 6 14
10 47 9 29 0 46 -3 38 -6z m907 1 c-3 -3 -12 -4 -19 -1 -8 3 -5 6 6 6 11 1 17
-2 13 -5z m1120 -16 c-3 -8 -6 -5 -6 6 -1 11 2 17 5 13 3 -3 4 -12 1 -19z
m146 11 c20 8 25 7 21 -3 -3 -7 -26 -13 -57 -15 -48 -2 -50 -1 -32 13 13 9 24
11 31 5 7 -6 21 -6 37 0z m-1609 -14 c4 -10 -1 -15 -16 -15 -17 0 -18 2 -8 15
7 8 14 15 15 15 2 0 5 -7 9 -15z m146 11 c0 -3 -4 -8 -10 -11 -5 -3 -10 -1
-10 4 0 6 5 11 10 11 6 0 10 -2 10 -4z m1187 -2 c-3 -3 -12 -4 -19 -1 -8 3 -5
6 6 6 11 1 17 -2 13 -5z m530 0 c-3 -3 -12 -4 -19 -1 -8 3 -5 6 6 6 11 1 17
-2 13 -5z m850 -8 c-4 -10 -1 -13 9 -9 7 3 14 0 14 -6 0 -16 -37 -13 -43 3 -5
12 3 21 22 25 2 1 1 -6 -2 -13z m-2952 -6 c3 -6 -1 -7 -9 -4 -18 7 -21 14 -7
14 6 0 13 -4 16 -10z m350 -8 c-3 -3 -11 0 -18 7 -9 10 -8 11 6 5 10 -3 15 -9
12 -12z m1055 8 c0 -5 -8 -10 -17 -10 -15 0 -16 2 -3 10 19 12 20 12 20 0z
m550 -13 c10 -17 10 -19 -5 -13 -9 3 -28 6 -41 6 -13 0 -24 5 -24 11 0 5 5 7
10 4 6 -3 10 -2 10 4 0 17 37 8 50 -12z m110 13 c0 -5 -10 -10 -22 -9 -22 0
-22 1 -3 9 11 5 21 9 23 9 1 1 2 -3 2 -9z m-2356 -9 c3 -5 -1 -11 -9 -14 -9
-4 -12 -1 -8 9 6 16 10 17 17 5z m1850 1 c2 -4 -12 -8 -32 -9 -36 -1 -36 -1
-7 7 17 4 31 8 32 9 1 0 4 -3 7 -7z m-2268 -9 c-4 -4 -19 -8 -34 -10 -23 -2
-24 -1 -7 7 24 11 51 13 41 3z m2909 -3 c-3 -5 -12 -10 -18 -10 -7 0 -6 4 3
10 19 12 23 12 15 0z m718 -6 c-5 -14 -1 -16 20 -12 15 3 27 1 27 -4 0 -17
-29 -19 -57 -4 -15 8 -21 15 -13 16 13 0 13 1 0 10 -12 8 -11 10 7 10 17 0 21
-4 16 -16z m-2797 -1 c-10 -10 -56 -11 -62 -1 -3 4 12 8 32 8 21 0 34 -3 30
-7z m1701 1 c-3 -3 -12 -4 -19 -1 -8 3 -5 6 6 6 11 1 17 -2 13 -5z m726 -1
c-7 -2 -13 -9 -13 -14 0 -4 7 -5 17 -2 11 4 14 3 9 -6 -4 -6 -16 -9 -26 -6
-11 3 -28 1 -40 -5 -17 -9 -20 -8 -20 9 0 15 8 21 33 24 48 6 53 6 40 0z
m-1534 -17 c9 -10 7 -17 -6 -27 -16 -13 -17 -12 -4 4 12 15 11 17 -3 17 -9 0
-16 -4 -16 -9 0 -5 -11 -4 -25 2 l-25 12 33 6 c17 4 33 7 33 8 1 0 7 -5 13
-13z m596 4 c3 -5 -1 -10 -10 -10 -9 0 -13 5 -10 10 3 6 8 10 10 10 2 0 7 -4
10 -10z m1252 -7 c-8 -9 -20 -12 -26 -9 -19 12 -12 21 15 23 24 1 25 -1 11
-14z m-3852 -12 c-3 -6 -11 -11 -17 -11 -6 0 -6 6 2 15 14 17 26 13 15 -4z
m59 11 c2 -4 -5 -9 -17 -9 -17 -2 -19 0 -7 7 18 12 18 12 24 2z m1081 -2 c3
-5 -1 -10 -10 -10 -9 0 -13 5 -10 10 3 6 8 10 10 10 2 0 7 -4 10 -10z m1263
-6 c6 -2 12 -11 12 -21 0 -10 -4 -14 -8 -8 -4 6 -23 12 -42 13 -40 4 -44 7
-35 21 5 10 32 8 73 -5z m104 9 c-6 -2 -10 -9 -6 -14 3 -5 -2 -9 -12 -9 -13 0
-14 3 -4 15 7 8 18 15 24 14 7 0 6 -2 -2 -6z m637 -6 c14 4 14 3 0 -6 -8 -5
-24 -8 -35 -6 -10 2 -21 4 -24 4 -3 1 2 6 10 11 9 5 19 5 24 0 4 -4 16 -6 25
-3z m1021 -9 c0 -19 -2 -20 -10 -8 -13 19 -13 30 0 30 6 0 10 -10 10 -22z
m-3075 2 c-27 -12 -43 -12 -25 0 8 5 22 9 30 9 10 0 8 -3 -5 -9z m1723 -1
c-10 -5 -18 -17 -18 -24 0 -17 -9 -19 -30 -5 -13 8 -12 10 3 10 10 0 20 7 23
15 4 8 14 15 23 15 14 -1 14 -2 -1 -11z m1177 -8 c-3 -6 -16 -11 -28 -11 -21
1 -21 1 3 15 27 14 36 13 25 -4z m2910 -1 c22 -5 60 -12 85 -16 25 -3 48 -10
51 -15 3 -6 13 -7 22 -3 20 7 22 -6 5 -25 -11 -11 -6 -12 27 -8 22 3 32 3 23
1 -10 -3 -18 -9 -18 -14 0 -4 -10 -6 -22 -2 -18 4 -20 2 -15 -14 7 -18 6 -18
-7 -1 -8 10 -27 17 -48 17 -19 0 -39 5 -45 11 -6 6 -26 9 -44 7 -34 -4 -34 -4
-9 -15 22 -10 22 -12 5 -12 -11 0 -38 6 -60 14 -39 14 -39 14 -10 16 30 1 30
1 5 9 -14 4 -40 8 -59 9 -33 1 -153 33 -196 52 -27 13 258 2 310 -11z m-5630
0 c5 -8 11 -7 21 1 12 10 18 9 30 -4 8 -9 9 -12 2 -7 -16 13 -31 13 -23 0 9
-15 -44 -8 -57 7 -8 10 -6 13 5 13 9 0 19 -5 22 -10z m2767 -8 c-7 -2 -12 -11
-12 -20 0 -12 -3 -13 -11 -5 -13 13 10 45 26 35 5 -3 4 -7 -3 -10z m-572 -12
c0 -5 -7 -7 -15 -4 -8 4 -12 10 -9 15 6 11 24 2 24 -11z m410 10 c0 -5 -5 -10
-11 -10 -5 0 -7 5 -4 10 3 6 8 10 11 10 2 0 4 -4 4 -10z m-4095 -9 c3 -5 1
-12 -5 -16 -5 -3 -10 1 -10 9 0 18 6 21 15 7z m935 -6 c0 -2 -9 -3 -19 -2 -11
0 -18 5 -15 9 4 6 34 0 34 -7z m440 5 c0 -5 -5 -10 -11 -10 -5 0 -7 5 -4 10 3
6 8 10 11 10 2 0 4 -4 4 -10z m636 3 c-3 -4 -17 -8 -29 -10 -17 -2 -19 -1 -7
7 17 11 47 14 36 3z m1464 -8 c-1 -5 -7 -9 -15 -7 -7 1 -16 -2 -20 -7 -3 -6
-13 -7 -21 -4 -14 5 -12 8 7 19 27 15 51 14 49 -1z m470 5 c0 -14 67 -13 76 1
4 8 9 8 17 0 16 -16 8 -19 -63 -26 -47 -5 -61 -4 -50 4 14 10 7 16 -13 12 -5
-1 -6 3 -2 9 8 13 35 13 35 0z m-3883 -6 c-3 -3 -12 -4 -19 -1 -8 3 -5 6 6 6
11 1 17 -2 13 -5z m920 0 c-3 -3 -12 -4 -19 -1 -8 3 -5 6 6 6 11 1 17 -2 13
-5z m848 -13 c-3 -6 -14 -11 -23 -11 -13 0 -13 2 4 14 21 15 30 14 19 -3z
m380 9 c-3 -5 -10 -10 -16 -10 -5 0 -9 5 -9 10 0 6 7 10 16 10 8 0 12 -4 9
-10z m1355 -7 c14 -10 39 -16 59 -14 34 2 35 1 16 -13 -15 -10 -22 -11 -27 -3
-4 7 -8 8 -8 4 0 -4 -8 -4 -17 2 -10 5 -26 5 -40 0 -16 -6 -22 -5 -20 4 1 7
-4 11 -10 10 -14 -3 -17 9 -6 20 11 11 27 8 53 -10z m291 10 c-19 -4 -21 -7
-10 -14 8 -5 9 -9 3 -9 -6 0 -17 7 -24 15 -11 13 -8 15 21 14 27 -1 29 -3 10
-6z m-3135 -30 c-10 -10 -19 5 -10 18 6 11 8 11 12 0 2 -7 1 -15 -2 -18z m557
1 c-7 -19 -10 -18 -16 5 -3 13 -1 18 9 14 7 -2 10 -11 7 -19z m607 11 c0 -2
-9 -3 -19 -2 -11 0 -18 5 -15 9 4 6 34 0 34 -7z m1479 -8 c-2 -2 -17 -7 -34
-11 l-30 -7 25 20 c15 12 29 16 34 11 5 -5 8 -11 5 -13z m716 13 c3 -5 2 -10
-4 -10 -5 0 -13 5 -16 10 -3 6 -2 10 4 10 5 0 13 -4 16 -10z m-378 -6 c-3 -3
-12 -4 -19 -1 -8 3 -5 6 6 6 11 1 17 -2 13 -5z m117 -3 c3 -4 -6 -6 -19 -3
-14 2 -25 6 -25 8 0 8 39 4 44 -5z m69 -15 c-3 -13 -15 -28 -26 -34 -18 -9
-15 -10 18 -6 30 3 35 2 20 -5 -11 -5 -30 -10 -43 -10 -20 -1 -22 3 -16 22 6
22 33 55 45 56 3 1 4 -10 2 -23z m-2423 4 c0 -5 -4 -10 -10 -10 -5 0 -10 5
-10 10 0 6 5 10 10 10 6 0 10 -4 10 -10z m690 6 c0 -2 -7 -6 -15 -10 -8 -3
-15 -1 -15 4 0 6 7 10 15 10 8 0 15 -2 15 -4z m855 -8 c-11 -6 -23 -16 -27
-22 -5 -7 -8 -3 -8 9 -1 19 -1 19 -14 3 -18 -24 -29 -23 -16 2 8 15 21 20 48
20 33 -1 35 -2 17 -12z m-1005 -8 c0 -5 -7 -10 -15 -10 -8 0 -15 -5 -15 -12 0
-6 -3 -8 -7 -4 -5 4 1 14 11 22 23 17 26 17 26 4z m1384 -5 c-25 -19 -35 -19
-28 0 4 8 16 15 27 15 20 0 20 0 1 -15z m432 -16 c0 -10 -6 -19 -14 -19 -7 0
-10 5 -7 10 4 6 -9 10 -32 10 -37 1 -37 1 -14 14 31 17 67 10 67 -15z m-1416
17 c0 -3 -4 -8 -10 -11 -5 -3 -10 -1 -10 4 0 6 5 11 10 11 6 0 10 -2 10 -4z
m1285 -6 c3 -5 1 -10 -4 -10 -6 0 -11 5 -11 10 0 6 2 10 4 10 3 0 8 -4 11 -10z
m235 0 c0 -5 -4 -10 -10 -10 -5 0 -10 5 -10 10 0 6 5 10 10 10 6 0 10 -4 10
-10z m-1840 -21 c0 -11 -4 -17 -10 -14 -5 3 -10 13 -10 21 0 8 5 14 10 14 6 0
10 -9 10 -21z m1244 1 c-6 -6 -15 -5 -24 1 -13 9 -12 10 3 5 9 -3 17 0 17 6 0
6 3 8 7 5 4 -4 2 -12 -3 -17z m-3706 -5 c-2 -5 -7 -10 -13 -11 -5 -1 -14 -3
-20 -4 -20 -5 -36 0 -30 10 3 5 12 7 19 4 8 -3 17 0 21 6 8 13 28 9 23 -5z
m1337 5 c3 -5 -1 -10 -10 -10 -9 0 -13 5 -10 10 3 6 8 10 10 10 2 0 7 -4 10
-10z m1089 1 c3 -5 -6 -8 -20 -8 -19 0 -22 2 -13 8 18 11 26 11 33 0z m1616 5
c0 -2 -9 -6 -20 -9 -11 -3 -20 -1 -20 4 0 5 9 9 20 9 11 0 20 -2 20 -4z m3290
0 c0 -2 -7 -7 -16 -10 -8 -3 -12 -2 -9 4 6 10 25 14 25 6z m360 -10 c0 -3 -4
-8 -10 -11 -5 -3 -10 -1 -10 4 0 6 5 11 10 11 6 0 10 -2 10 -4z m-3943 -22
c-3 -3 -12 -4 -19 -1 -8 3 -5 6 6 6 11 1 17 -2 13 -5z"/>
<path d="M9200 3180 c-8 -5 -12 -12 -9 -15 4 -3 12 1 19 10 14 17 11 19 -10 5z"/>
<path d="M4985 2788 c-32 -93 -33 -99 -17 -86 15 13 42 68 42 88 0 14 -20 13
-25 -2z"/>
<path d="M8140 2625 c-11 -13 -10 -14 4 -9 9 3 16 10 16 15 0 13 -6 11 -20 -6z"/>
<path d="M5300 1790 c8 -5 20 -10 25 -10 6 0 3 5 -5 10 -8 5 -19 10 -25 10 -5
0 -3 -5 5 -10z"/>
<path d="M5190 1709 c0 -5 5 -7 10 -4 6 3 10 8 10 11 0 2 -4 4 -10 4 -5 0 -10
-5 -10 -11z"/>
<path d="M5085 1604 c-22 -18 -34 -34 -27 -34 6 0 12 5 12 10 0 6 5 10 10 10
11 0 54 40 48 45 -1 2 -21 -12 -43 -31z"/>
<path d="M5150 1599 c0 -5 5 -7 10 -4 6 3 10 8 10 11 0 2 -4 4 -10 4 -5 0 -10
-5 -10 -11z"/>
<path d="M5195 1370 c-3 -5 -2 -10 4 -10 5 0 13 5 16 10 3 6 2 10 -4 10 -5 0
-13 -4 -16 -10z"/>
<path d="M6545 1350 c6 -9 -22 -15 -55 -10 -10 1 -12 -2 -5 -8 16 -16 137 -20
142 -4 3 7 -4 12 -19 12 -18 0 -20 2 -8 10 13 8 13 10 -2 10 -9 0 -19 -6 -22
-12 -5 -10 -7 -10 -12 0 -3 6 -10 12 -15 12 -6 0 -7 -4 -4 -10z"/>
<path d="M6685 1329 c-4 -6 -5 -12 -2 -15 2 -3 7 2 10 11 7 17 1 20 -8 4z"/>
<path d="M7130 1320 c0 -13 -4 -19 -12 -14 -6 4 -8 3 -4 -4 3 -6 19 -8 34 -6
20 4 24 2 16 -6 -9 -9 -7 -17 8 -32 16 -16 18 -22 7 -29 -7 -4 -11 -10 -8 -13
2 -3 11 -1 19 4 13 8 13 13 -1 37 -9 15 -14 34 -11 42 3 10 -1 12 -17 8 -17
-4 -21 -2 -17 8 3 8 1 17 -4 20 -6 4 -10 -3 -10 -15z"/>
<path d="M7160 1332 c0 -4 18 -6 40 -4 22 2 40 6 40 8 0 2 -18 4 -40 4 -22 0
-40 -3 -40 -8z"/>
<path d="M6368 1323 c7 -3 16 -2 19 1 4 3 -2 6 -13 5 -11 0 -14 -3 -6 -6z"/>
<path d="M6645 1320 c3 -5 8 -10 11 -10 2 0 4 5 4 10 0 6 -5 10 -11 10 -5 0
-7 -4 -4 -10z"/>
<path d="M6435 1299 c5 -16 4 -19 -5 -14 -8 5 -11 4 -7 -2 7 -11 57 -5 57 7 0
4 -12 12 -26 19 -24 10 -25 10 -19 -10z"/>
<path d="M6755 1295 l-30 -25 40 0 c36 1 38 2 22 14 -19 14 -7 33 13 21 17
-10 11 -33 -12 -50 l-23 -16 25 5 c14 2 40 5 59 5 32 1 33 2 18 19 -14 16 -13
17 13 18 20 1 27 -3 23 -12 -3 -8 -1 -14 4 -14 5 0 9 9 10 20 1 14 -6 21 -30
25 -18 3 -42 3 -54 1 -13 -3 -23 -1 -23 5 0 16 -24 9 -55 -16z"/>
<path d="M7375 1294 c-14 -15 -24 -32 -23 -38 1 -6 -4 -22 -11 -36 -8 -15 5
-5 33 24 25 26 46 52 46 56 0 22 -22 19 -45 -6z"/>
<path d="M6400 1300 c-9 -6 -10 -10 -3 -10 6 0 15 5 18 10 8 12 4 12 -15 0z"/>
<path d="M6930 1290 c0 -5 4 -10 9 -10 6 0 13 5 16 10 3 6 -1 10 -9 10 -9 0
-16 -4 -16 -10z"/>
<path d="M6498 1283 c7 -3 16 -2 19 1 4 3 -2 6 -13 5 -11 0 -14 -3 -6 -6z"/>
<path d="M6566 1281 c-3 -5 5 -8 19 -7 14 0 25 4 25 9 0 10 -38 9 -44 -2z"/>
<path d="M7070 1286 c0 -2 7 -7 16 -10 8 -3 12 -2 9 4 -6 10 -25 14 -25 6z"/>
<path d="M7230 1261 c0 -5 5 -13 10 -16 6 -3 10 -2 10 4 0 5 -4 13 -10 16 -5
3 -10 2 -10 -4z"/>
<path d="M6690 1250 c0 -5 5 -10 11 -10 5 0 7 5 4 10 -3 6 -8 10 -11 10 -2 0
-4 -4 -4 -10z"/>
<path d="M6078 693 c6 -2 18 -2 25 0 6 3 1 5 -13 5 -14 0 -19 -2 -12 -5z"/>
<path d="M5870 671 c0 -18 18 -21 30 -6 10 13 9 15 -9 15 -11 0 -21 -4 -21 -9z"/>
<path d="M5635 634 c-32 -14 -17 -17 25 -5 14 4 20 9 15 13 -6 3 -23 -1 -40
-8z"/>
<path d="M5935 630 c3 -5 8 -10 11 -10 2 0 4 5 4 10 0 6 -5 10 -11 10 -5 0 -7
-4 -4 -10z"/>
<path d="M4945 610 c-3 -5 1 -10 10 -10 9 0 13 5 10 10 -3 6 -8 10 -10 10 -2
0 -7 -4 -10 -10z"/>
<path d="M4825 571 c-3 -5 -1 -12 5 -16 5 -3 10 1 10 9 0 18 -6 21 -15 7z"/>
<path d="M4856 564 c-8 -22 -8 -24 8 -24 21 0 26 13 11 27 -10 10 -14 9 -19
-3z"/>
<path d="M7590 525 c-7 -9 -8 -15 -2 -15 5 0 12 7 16 15 3 8 4 15 2 15 -2 0
-9 -7 -16 -15z"/>
<path d="M5610 520 c0 -5 5 -10 10 -10 6 0 10 5 10 10 0 6 -4 10 -10 10 -5 0
-10 -4 -10 -10z"/>
<path d="M3590 490 c-12 -8 -10 -10 8 -10 13 0 20 4 17 10 -7 12 -6 12 -25 0z"/>
<path d="M5395 500 c-3 -5 1 -10 9 -10 9 0 16 5 16 10 0 6 -4 10 -9 10 -6 0
-13 -4 -16 -10z"/>
<path d="M4864 209 c-5 -8 44 -16 69 -11 9 2 17 7 17 11 0 9 -80 9 -86 0z"/>
<path d="M8190 100 c0 -5 5 -10 10 -10 6 0 10 5 10 10 0 6 -4 10 -10 10 -5 0
-10 -4 -10 -10z"/>
<path d="M9945 1700 c-10 -11 -14 -20 -8 -20 5 0 18 9 28 20 10 11 14 20 8 20
-5 0 -18 -9 -28 -20z"/>
<path d="M9980 1680 c-9 -6 -10 -10 -3 -10 6 0 15 5 18 10 8 12 4 12 -15 0z"/>
<path d="M9947 1622 c-26 -27 -36 -49 -17 -37 10 6 53 65 48 65 -3 0 -16 -13
-31 -28z"/>
<path d="M9870 1505 c-6 -8 -10 -19 -8 -26 2 -6 9 0 16 15 13 29 10 33 -8 11z"/>
<path d="M9743 1463 c-3 -10 -8 -22 -10 -28 -3 -5 3 -1 11 9 16 20 21 36 11
36 -3 0 -8 -8 -12 -17z"/>
<path d="M9810 1455 c-7 -9 -10 -18 -7 -21 3 -3 10 4 17 15 13 25 8 27 -10 6z"/>
<path d="M9786 1393 c-6 -14 -5 -15 5 -6 7 7 10 15 7 18 -3 3 -9 -2 -12 -12z"/>
<path d="M9746 1375 c-3 -8 -3 -22 0 -30 7 -17 24 -20 24 -5 0 6 -4 10 -9 10
-5 0 -7 9 -4 20 6 23 -2 27 -11 5z"/>
<path d="M9669 1323 c-13 -16 -12 -17 4 -4 16 13 21 21 13 21 -2 0 -10 -8 -17
-17z"/>
<path d="M5145 21 c-18 -4 -25 -9 -19 -14 19 -11 64 -4 64 10 0 14 0 14 -45 4z"/>
<path d="M5095 10 c-3 -5 -1 -10 4 -10 6 0 11 5 11 10 0 6 -2 10 -4 10 -3 0
-8 -4 -11 -10z"/>
</g>
</svg>
