<svg xmlns="http://www.w3.org/2000/svg" version="1.1" xmlns:xlink="http://www.w3.org/1999/xlink" xmlns:svgjs="http://svgjs.dev/svgjs" width="2000" height="314" viewBox="0 0 2000 314"><g transform="matrix(1,0,0,1,1.2870400000000473,0.1742646779660788)"><svg viewBox="0 0 375 59" data-background-color="#282634" preserveAspectRatio="xMidYMid meet" height="314" width="2000" xmlns="http://www.w3.org/2000/svg" xmlns:xlink="http://www.w3.org/1999/xlink"><g id="tight-bounds" transform="matrix(1,0,0,1,-0.24132000000000176,-0.03264400000000478)"><svg viewBox="0 0 375.48264 59.065388" height="59.065388" width="375.48264"><g><svg></svg></g><g><svg viewBox="0 0 375.48264 59.065388" height="59.065388" width="375.48264"><g transform="matrix(1,0,0,1,-10.01868,-95.57709999999999)"><path d="M10.019 151.623v-56.046h375.482v56.046h-130.131l0-1.351h128.781v-53.344h-372.782v53.344h46.827l0 1.351z" fill="#ffffff" fill-rule="nonzero" stroke="none" stroke-width="1" stroke-linecap="butt" stroke-linejoin="miter" stroke-miterlimit="10" stroke-dasharray="" stroke-dashoffset="0" font-family="none" font-weight="none" font-size="none" text-anchor="none" style="mix-blend-mode: normal" data-fill-palette-color="tertiary"></path><g><path transform="translate(61.6555,153.07626) scale(0.16662,0.16662)" d="M27.45 0h-23.9v-34.3h23.8l-0.9 6.35h-14.7v7.3h13.75v6.2h-13.75v7.85h14.85zM38.3 0h-6.3v-25.55h4.2l0.65 2.65c0.6-1 1.367-1.777 2.3-2.33 0.933-0.547 1.933-0.82 3-0.82v0c1.233 0 2.273 0.29 3.12 0.87 0.853 0.587 1.463 1.363 1.83 2.33v0c0.733-1.1 1.55-1.91 2.45-2.43 0.9-0.513 1.933-0.77 3.1-0.77v0c1.867 0 3.25 0.59 4.15 1.77 0.9 1.187 1.35 2.763 1.35 4.73v0 19.55h-6.3v-17.85c0-1.5-0.583-2.25-1.75-2.25v0c-0.533 0-0.983 0.2-1.35 0.6-0.367 0.4-0.55 0.95-0.55 1.65v0 17.85h-6.2v-17.85c0-1.5-0.6-2.25-1.8-2.25v0c-0.567 0-1.023 0.2-1.37 0.6-0.353 0.4-0.53 0.95-0.53 1.65v0zM71.35 9.05h-7.85v-34.6h6.4l0.65 2.9c0.667-1.033 1.623-1.86 2.87-2.48 1.253-0.613 2.83-0.92 4.73-0.92v0c1.967 0 3.71 0.457 5.23 1.37 1.513 0.92 2.687 2.33 3.52 4.23 0.833 1.9 1.25 4.367 1.25 7.4v0 0.6c0 2.833-0.467 5.207-1.4 7.12-0.933 1.92-2.193 3.37-3.78 4.35-1.58 0.987-3.337 1.48-5.27 1.48v0c-1.533 0-2.833-0.26-3.9-0.78-1.067-0.513-1.883-1.07-2.45-1.67v0zM75.8-4.6v0c1.267 0 2.317-0.45 3.15-1.35 0.833-0.9 1.25-2.267 1.25-4.1v0-5.45c0-1.3-0.19-2.35-0.57-3.15-0.387-0.8-0.913-1.393-1.58-1.78-0.667-0.38-1.417-0.57-2.25-0.57v0c-0.8 0-1.54 0.183-2.22 0.55-0.687 0.367-1.23 0.957-1.63 1.77-0.4 0.82-0.6 1.88-0.6 3.18v0 5.45c0 1.833 0.427 3.2 1.28 4.1 0.847 0.9 1.903 1.35 3.17 1.35zM105 0.5v0c-2.7 0-5.017-0.55-6.95-1.65-1.933-1.1-3.423-2.617-4.47-4.55-1.053-1.933-1.58-4.133-1.58-6.6v0-0.95c0-2.533 0.527-4.767 1.58-6.7 1.047-1.933 2.537-3.433 4.47-4.5 1.933-1.067 4.233-1.6 6.9-1.6v0c2.733 0 5.073 0.54 7.02 1.62 1.953 1.087 3.447 2.587 4.48 4.5 1.033 1.92 1.55 4.147 1.55 6.68v0 0.95c0 2.533-0.527 4.767-1.58 6.7-1.047 1.933-2.537 3.433-4.47 4.5-1.933 1.067-4.25 1.6-6.95 1.6zM105-4.5v0c1.333 0 2.443-0.5 3.33-1.5 0.88-1 1.32-2.3 1.32-3.9v0-5.75c0-1.633-0.44-2.943-1.32-3.93-0.887-0.98-1.997-1.47-3.33-1.47v0c-1.3 0-2.4 0.49-3.3 1.47-0.9 0.987-1.35 2.297-1.35 3.93v0 5.75c0 1.6 0.45 2.9 1.35 3.9 0.9 1 2 1.5 3.3 1.5zM132.35 0h-7.85l-4.5-25.55h6.1l2.85 15.85h0.2l2.8-15.85h6.35l2.65 15.85h0.2l2.8-15.85h6.05l-4.45 25.55h-7.75l-2.55-15.35h-0.2zM165.15 0.5v0c-2.967 0-5.41-0.51-7.33-1.53-1.913-1.013-3.33-2.47-4.25-4.37-0.913-1.9-1.37-4.133-1.37-6.7v0-1.35c0-2.667 0.54-4.943 1.62-6.83 1.087-1.88 2.623-3.313 4.61-4.3 1.98-0.98 4.32-1.47 7.02-1.47v0c2.5 0 4.66 0.457 6.48 1.37 1.813 0.92 3.213 2.203 4.2 3.85 0.98 1.653 1.47 3.63 1.47 5.93v0 3.6h-17.05v1.35c0 1.833 0.45 3.2 1.35 4.1 0.9 0.9 2.083 1.35 3.55 1.35v0c1.633 0 2.85-0.393 3.65-1.18 0.8-0.78 1.2-1.987 1.2-3.62v0h7.3c0 2.067-0.51 3.833-1.53 5.3-1.013 1.467-2.443 2.583-4.29 3.35-1.853 0.767-4.063 1.15-6.63 1.15zM160.55-16.05v0.4h9.35v-0.65c0-0.933-0.2-1.76-0.6-2.48-0.4-0.713-0.94-1.27-1.62-1.67-0.687-0.4-1.48-0.6-2.38-0.6v0c-0.967 0-1.8 0.223-2.5 0.67-0.7 0.453-1.25 1.063-1.65 1.83-0.4 0.767-0.6 1.6-0.6 2.5zM195.35 0h-7.65v-19.8h-5.3v-5.75h11.7l0.35 3.25c0.533-1.067 1.383-1.96 2.55-2.68 1.167-0.713 2.617-1.07 4.35-1.07v0c2.3 0 4.09 0.667 5.37 2 1.287 1.333 1.93 3.1 1.93 5.3v0c0 0.533-0.007 1.057-0.02 1.57-0.02 0.52-0.08 1.063-0.18 1.63v0h-6.5v-1.35c0-0.6-0.127-1.157-0.38-1.67-0.247-0.52-0.613-0.93-1.1-1.23-0.48-0.3-1.07-0.45-1.77-0.45v0c-0.7 0-1.3 0.183-1.8 0.55-0.5 0.367-0.883 0.84-1.15 1.42-0.267 0.587-0.4 1.23-0.4 1.93v0zM205 0h-22.7v-5.65h22.7zM230.5 0h-7.8v-19.8h-8.5v-5.75h16.3zM238.2 0h-24v-5.65h24zM229.25-30.4h-6.2v-6.1h6.2zM251.25 0h-7.85v-25.55h6.4l0.6 2.9c0.8-1.167 1.833-2.027 3.1-2.58 1.267-0.547 2.75-0.82 4.45-0.82v0c2.733 0 4.893 0.75 6.48 2.25 1.58 1.5 2.37 3.6 2.37 6.3v0 17.5h-7.85v-15.85c0-1.5-0.333-2.627-1-3.38-0.667-0.747-1.583-1.12-2.75-1.12v0c-0.8 0-1.5 0.2-2.1 0.6-0.6 0.4-1.06 0.94-1.38 1.62-0.313 0.687-0.47 1.48-0.47 2.38v0zM290.9 9.4h-12.2c-2.433 0-4.243-0.583-5.43-1.75-1.18-1.167-1.77-2.6-1.77-4.3v0c0-1.267 0.357-2.4 1.07-3.4 0.72-1 1.63-1.75 2.73-2.25v0c-0.733-0.467-1.317-1.083-1.75-1.85-0.433-0.767-0.65-1.583-0.65-2.45v0c0-1.267 0.417-2.36 1.25-3.28 0.833-0.913 1.9-1.47 3.2-1.67v0c-1.2-0.7-2.117-1.593-2.75-2.68-0.633-1.08-0.95-2.337-0.95-3.77v0c0-2.433 0.927-4.383 2.78-5.85 1.847-1.467 4.753-2.2 8.72-2.2v0c1.8 0 3.283 0.167 4.45 0.5v0c1.4-0.367 2.367-0.967 2.9-1.8 0.533-0.833 0.833-1.767 0.9-2.8v0h6c0 1.833-0.473 3.283-1.42 4.35-0.953 1.067-2.263 1.817-3.93 2.25v0 0.05c0.833 0.667 1.483 1.483 1.95 2.45 0.467 0.967 0.7 1.983 0.7 3.05v0c0 2.433-0.817 4.407-2.45 5.92-1.633 1.52-4.133 2.28-7.5 2.28v0h-4.1c-0.8 0-1.433 0.157-1.9 0.47-0.467 0.32-0.7 0.78-0.7 1.38v0c0 0.6 0.227 1.057 0.68 1.37 0.447 0.32 1.07 0.48 1.87 0.48v0h8.35c2.7 0 4.783 0.673 6.25 2.02 1.467 1.353 2.2 3.147 2.2 5.38v0c0 2.4-0.723 4.35-2.17 5.85-1.453 1.5-3.563 2.25-6.33 2.25zM281 4.95v0h8.4c0.9 0 1.6-0.26 2.1-0.78 0.5-0.513 0.75-1.137 0.75-1.87v0c0-0.7-0.243-1.3-0.73-1.8-0.48-0.5-1.187-0.75-2.12-0.75v0h-8.4c-0.933 0-1.64 0.25-2.12 0.75-0.487 0.5-0.73 1.117-0.73 1.85v0c0 0.7 0.243 1.307 0.73 1.82 0.48 0.52 1.187 0.78 2.12 0.78zM285.3-14.15v0c1.3 0 2.343-0.317 3.13-0.95 0.78-0.633 1.17-1.567 1.17-2.8v0c0-1.233-0.39-2.167-1.17-2.8-0.787-0.633-1.83-0.95-3.13-0.95v0c-1.267 0-2.29 0.317-3.07 0.95-0.787 0.633-1.18 1.567-1.18 2.8v0c0 1.233 0.393 2.167 1.18 2.8 0.78 0.633 1.803 0.95 3.07 0.95zM349.15 0h-8.25v-27.7h-9.5v-6.6h27.25v6.6h-9.5zM375 0.5v0c-2.7 0-5.017-0.55-6.95-1.65-1.933-1.1-3.427-2.617-4.48-4.55-1.047-1.933-1.57-4.133-1.57-6.6v0-0.95c0-2.533 0.523-4.767 1.57-6.7 1.053-1.933 2.547-3.433 4.48-4.5 1.933-1.067 4.233-1.6 6.9-1.6v0c2.733 0 5.077 0.54 7.03 1.62 1.947 1.087 3.437 2.587 4.47 4.5 1.033 1.92 1.55 4.147 1.55 6.68v0 0.95c0 2.533-0.523 4.767-1.57 6.7-1.053 1.933-2.547 3.433-4.48 4.5-1.933 1.067-4.25 1.6-6.95 1.6zM375-4.5v0c1.333 0 2.44-0.5 3.32-1.5 0.887-1 1.33-2.3 1.33-3.9v0-5.75c0-1.633-0.443-2.943-1.33-3.93-0.88-0.98-1.987-1.47-3.32-1.47v0c-1.3 0-2.4 0.49-3.3 1.47-0.9 0.987-1.35 2.297-1.35 3.93v0 5.75c0 1.6 0.45 2.9 1.35 3.9 0.9 1 2 1.5 3.3 1.5zM398.3 0h-6.3v-25.55h4.2l0.65 2.65c0.6-1 1.367-1.777 2.3-2.33 0.933-0.547 1.933-0.82 3-0.82v0c1.233 0 2.273 0.29 3.12 0.87 0.853 0.587 1.463 1.363 1.83 2.33v0c0.733-1.1 1.55-1.91 2.45-2.43 0.9-0.513 1.933-0.77 3.1-0.77v0c1.867 0 3.25 0.59 4.15 1.77 0.9 1.187 1.35 2.763 1.35 4.73v0 19.55h-6.3v-17.85c0-1.5-0.583-2.25-1.75-2.25v0c-0.533 0-0.983 0.2-1.35 0.6-0.367 0.4-0.55 0.95-0.55 1.65v0 17.85h-6.2v-17.85c0-1.5-0.6-2.25-1.8-2.25v0c-0.567 0-1.027 0.2-1.38 0.6-0.347 0.4-0.52 0.95-0.52 1.65v0zM435 0.5v0c-2.7 0-5.017-0.55-6.95-1.65-1.933-1.1-3.427-2.617-4.48-4.55-1.047-1.933-1.57-4.133-1.57-6.6v0-0.95c0-2.533 0.523-4.767 1.57-6.7 1.053-1.933 2.547-3.433 4.48-4.5 1.933-1.067 4.233-1.6 6.9-1.6v0c2.733 0 5.077 0.54 7.03 1.62 1.947 1.087 3.437 2.587 4.47 4.5 1.033 1.92 1.55 4.147 1.55 6.68v0 0.95c0 2.533-0.523 4.767-1.57 6.7-1.053 1.933-2.547 3.433-4.48 4.5-1.933 1.067-4.25 1.6-6.95 1.6zM435-4.5v0c1.333 0 2.44-0.5 3.32-1.5 0.887-1 1.33-2.3 1.33-3.9v0-5.75c0-1.633-0.443-2.943-1.33-3.93-0.88-0.98-1.987-1.47-3.32-1.47v0c-1.3 0-2.4 0.49-3.3 1.47-0.9 0.987-1.35 2.297-1.35 3.93v0 5.75c0 1.6 0.45 2.9 1.35 3.9 0.9 1 2 1.5 3.3 1.5zM465.35 0h-7.65v-19.8h-5.3v-5.75h11.7l0.35 3.25c0.533-1.067 1.383-1.96 2.55-2.68 1.167-0.713 2.617-1.07 4.35-1.07v0c2.3 0 4.093 0.667 5.38 2 1.28 1.333 1.92 3.1 1.92 5.3v0c0 0.533-0.007 1.057-0.02 1.57-0.02 0.52-0.08 1.063-0.18 1.63v0h-6.5v-1.35c0-0.6-0.127-1.157-0.38-1.67-0.247-0.52-0.61-0.93-1.09-1.23-0.487-0.3-1.08-0.45-1.78-0.45v0c-0.7 0-1.3 0.183-1.8 0.55-0.5 0.367-0.883 0.84-1.15 1.42-0.267 0.587-0.4 1.23-0.4 1.93v0zM475 0h-22.7v-5.65h22.7zM495.35 0h-7.65v-19.8h-5.3v-5.75h11.7l0.35 3.25c0.533-1.067 1.383-1.96 2.55-2.68 1.167-0.713 2.617-1.07 4.35-1.07v0c2.3 0 4.093 0.667 5.38 2 1.28 1.333 1.92 3.1 1.92 5.3v0c0 0.533-0.007 1.057-0.02 1.57-0.02 0.52-0.08 1.063-0.18 1.63v0h-6.5v-1.35c0-0.6-0.127-1.157-0.38-1.67-0.247-0.52-0.61-0.93-1.09-1.23-0.487-0.3-1.08-0.45-1.78-0.45v0c-0.7 0-1.3 0.183-1.8 0.55-0.5 0.367-0.883 0.84-1.15 1.42-0.267 0.587-0.4 1.23-0.4 1.93v0zM505 0h-22.7v-5.65h22.7zM525 0.5v0c-2.7 0-5.017-0.55-6.95-1.65-1.933-1.1-3.423-2.617-4.47-4.55-1.053-1.933-1.58-4.133-1.58-6.6v0-0.95c0-2.533 0.527-4.767 1.58-6.7 1.047-1.933 2.537-3.433 4.47-4.5 1.933-1.067 4.233-1.6 6.9-1.6v0c2.733 0 5.077 0.54 7.03 1.62 1.947 1.087 3.437 2.587 4.47 4.5 1.033 1.92 1.55 4.147 1.55 6.68v0 0.95c0 2.533-0.527 4.767-1.58 6.7-1.047 1.933-2.537 3.433-4.47 4.5-1.933 1.067-4.25 1.6-6.95 1.6zM525-4.5v0c1.333 0 2.443-0.5 3.33-1.5 0.88-1 1.32-2.3 1.32-3.9v0-5.75c0-1.633-0.44-2.943-1.32-3.93-0.887-0.98-1.997-1.47-3.33-1.47v0c-1.3 0-2.4 0.49-3.3 1.47-0.9 0.987-1.35 2.297-1.35 3.93v0 5.75c0 1.6 0.45 2.9 1.35 3.9 0.9 1 2 1.5 3.3 1.5zM552.35 0h-7.85l-4.5-25.55h6.1l2.85 15.85h0.2l2.8-15.85h6.35l2.65 15.85h0.2l2.8-15.85h6.05l-4.45 25.55h-7.75l-2.55-15.35h-0.2zM586.35-20.05h-2.65l-1.85-6.9v-7.35h6.35v7.35zM614.4 0.5v0c-2.233 0-4.207-0.283-5.92-0.85-1.72-0.567-3.073-1.427-4.06-2.58-0.98-1.147-1.47-2.587-1.47-4.32v0c0-0.133 0-0.277 0-0.43 0-0.147 0.017-0.32 0.05-0.52v0h6.5v0.3c0 1.067 0.45 1.9 1.35 2.5 0.9 0.6 2.3 0.9 4.2 0.9v0c1.767 0 3.033-0.243 3.8-0.73 0.767-0.48 1.15-1.12 1.15-1.92v0c0-0.533-0.173-0.967-0.52-1.3-0.353-0.333-1.063-0.633-2.13-0.9-1.067-0.267-2.7-0.55-4.9-0.85v0c-2.1-0.333-3.833-0.8-5.2-1.4-1.367-0.6-2.367-1.41-3-2.43-0.633-1.013-0.95-2.303-0.95-3.87v0c0-1.9 0.51-3.45 1.53-4.65 1.013-1.2 2.41-2.083 4.19-2.65 1.787-0.567 3.813-0.85 6.08-0.85v0c2 0 3.827 0.267 5.48 0.8 1.647 0.533 2.98 1.307 4 2.32 1.013 1.02 1.52 2.263 1.52 3.73v0c0 0.133 0 0.29 0 0.47 0 0.187-0.033 0.413-0.1 0.68v0h-6.6c0-0.8-0.19-1.427-0.57-1.88-0.387-0.447-0.93-0.763-1.63-0.95-0.7-0.18-1.517-0.27-2.45-0.27v0c-3 0-4.5 0.8-4.5 2.4v0c0 0.467 0.173 0.85 0.52 1.15 0.353 0.3 1.03 0.567 2.03 0.8 1 0.233 2.467 0.5 4.4 0.8v0c2.367 0.333 4.273 0.8 5.72 1.4 1.453 0.6 2.513 1.423 3.18 2.47 0.667 1.053 1 2.413 1 4.08v0c0 2.067-0.533 3.723-1.6 4.97-1.067 1.253-2.55 2.163-4.45 2.73-1.9 0.567-4.117 0.85-6.65 0.85zM679.15 0h-8.25v-27.7h-9.5v-6.6h27.25v6.6h-9.5zM705.15 0.5v0c-2.967 0-5.407-0.51-7.32-1.53-1.92-1.013-3.337-2.47-4.25-4.37-0.92-1.9-1.38-4.133-1.38-6.7v0-1.35c0-2.667 0.543-4.943 1.63-6.83 1.08-1.88 2.61-3.313 4.59-4.3 1.987-0.98 4.33-1.47 7.03-1.47v0c2.5 0 4.657 0.457 6.47 1.37 1.82 0.92 3.223 2.203 4.21 3.85 0.98 1.653 1.47 3.63 1.47 5.93v0 3.6h-17.05v1.35c0 1.833 0.45 3.2 1.35 4.1 0.9 0.9 2.083 1.35 3.55 1.35v0c1.633 0 2.85-0.393 3.65-1.18 0.8-0.78 1.2-1.987 1.2-3.62v0h7.3c0 2.067-0.507 3.833-1.52 5.3-1.02 1.467-2.457 2.583-4.31 3.35-1.847 0.767-4.053 1.15-6.62 1.15zM700.55-16.05v0.4h9.35v-0.65c0-0.933-0.2-1.76-0.6-2.48-0.4-0.713-0.943-1.27-1.63-1.67-0.68-0.4-1.47-0.6-2.37-0.6v0c-0.967 0-1.8 0.223-2.5 0.67-0.7 0.453-1.25 1.063-1.65 1.83-0.4 0.767-0.6 1.6-0.6 2.5zM735.25 0.5h-1.1c-1.633 0-3.183-0.31-4.65-0.93-1.467-0.613-2.75-1.487-3.85-2.62-1.1-1.133-1.967-2.45-2.6-3.95-0.633-1.5-0.95-3.15-0.95-4.95v0-1.7c0-1.8 0.317-3.45 0.95-4.95 0.633-1.5 1.507-2.81 2.62-3.93 1.12-1.113 2.413-1.98 3.88-2.6 1.467-0.613 3.033-0.92 4.7-0.92v0h1.15c2.3 0 4.283 0.45 5.95 1.35 1.667 0.9 2.96 2.15 3.88 3.75 0.913 1.6 1.37 3.467 1.37 5.6v0h-6.8c0-1.4-0.183-2.517-0.55-3.35-0.367-0.833-0.893-1.433-1.58-1.8-0.68-0.367-1.537-0.55-2.57-0.55v0c-1.3 0-2.39 0.44-3.27 1.32-0.887 0.887-1.33 2.247-1.33 4.08v0 5.75c0 1.667 0.41 2.983 1.23 3.95 0.813 0.967 2.003 1.45 3.57 1.45v0c1 0 1.833-0.183 2.5-0.55 0.667-0.367 1.177-0.967 1.53-1.8 0.347-0.833 0.52-1.95 0.52-3.35v0h6.75c0 2.267-0.477 4.2-1.43 5.8-0.947 1.6-2.27 2.817-3.97 3.65-1.7 0.833-3.683 1.25-5.95 1.25zM761.25 0h-7.85v-36h7.85v13.6c0.867-1.2 1.91-2.11 3.13-2.73 1.213-0.613 2.62-0.92 4.22-0.92v0c1.633 0 3.067 0.333 4.3 1 1.233 0.667 2.19 1.623 2.87 2.87 0.687 1.253 1.03 2.78 1.03 4.58v0 17.6h-7.85v-16.1c0-1.367-0.333-2.417-1-3.15-0.667-0.733-1.583-1.1-2.75-1.1v0c-0.767 0-1.45 0.183-2.05 0.55-0.6 0.367-1.067 0.867-1.4 1.5-0.333 0.633-0.5 1.367-0.5 2.2v0zM791.25 0h-7.85v-25.55h6.4l0.6 2.9c0.8-1.167 1.833-2.027 3.1-2.58 1.267-0.547 2.75-0.82 4.45-0.82v0c2.733 0 4.89 0.75 6.47 2.25 1.587 1.5 2.38 3.6 2.38 6.3v0 17.5h-7.85v-15.85c0-1.5-0.333-2.627-1-3.38-0.667-0.747-1.583-1.12-2.75-1.12v0c-0.8 0-1.5 0.2-2.1 0.6-0.6 0.4-1.057 0.94-1.37 1.62-0.32 0.687-0.48 1.48-0.48 2.38v0zM825 0.5v0c-2.7 0-5.017-0.55-6.95-1.65-1.933-1.1-3.423-2.617-4.47-4.55-1.053-1.933-1.58-4.133-1.58-6.6v0-0.95c0-2.533 0.527-4.767 1.58-6.7 1.047-1.933 2.537-3.433 4.47-4.5 1.933-1.067 4.233-1.6 6.9-1.6v0c2.733 0 5.077 0.54 7.03 1.62 1.947 1.087 3.437 2.587 4.47 4.5 1.033 1.92 1.55 4.147 1.55 6.68v0 0.95c0 2.533-0.527 4.767-1.58 6.7-1.047 1.933-2.537 3.433-4.47 4.5-1.933 1.067-4.25 1.6-6.95 1.6zM825-4.5v0c1.333 0 2.443-0.5 3.33-1.5 0.88-1 1.32-2.3 1.32-3.9v0-5.75c0-1.633-0.44-2.943-1.32-3.93-0.887-0.98-1.997-1.47-3.33-1.47v0c-1.3 0-2.4 0.49-3.3 1.47-0.9 0.987-1.35 2.297-1.35 3.93v0 5.75c0 1.6 0.45 2.9 1.35 3.9 0.9 1 2 1.5 3.3 1.5zM859.45 0h-7.8v-30.3h-8.5v-5.75h16.3zM867.15 0h-24v-5.65h24zM885 0.5v0c-2.7 0-5.017-0.55-6.95-1.65-1.933-1.1-3.423-2.617-4.47-4.55-1.053-1.933-1.58-4.133-1.58-6.6v0-0.95c0-2.533 0.527-4.767 1.58-6.7 1.047-1.933 2.537-3.433 4.47-4.5 1.933-1.067 4.233-1.6 6.9-1.6v0c2.733 0 5.077 0.54 7.03 1.62 1.947 1.087 3.437 2.587 4.47 4.5 1.033 1.92 1.55 4.147 1.55 6.68v0 0.95c0 2.533-0.527 4.767-1.58 6.7-1.047 1.933-2.537 3.433-4.47 4.5-1.933 1.067-4.25 1.6-6.95 1.6zM885-4.5v0c1.333 0 2.443-0.5 3.33-1.5 0.88-1 1.32-2.3 1.32-3.9v0-5.75c0-1.633-0.44-2.943-1.32-3.93-0.887-0.98-1.997-1.47-3.33-1.47v0c-1.3 0-2.4 0.49-3.3 1.47-0.9 0.987-1.35 2.297-1.35 3.93v0 5.75c0 1.6 0.45 2.9 1.35 3.9 0.9 1 2 1.5 3.3 1.5zM920.9 9.4h-12.2c-2.433 0-4.243-0.583-5.43-1.75-1.18-1.167-1.77-2.6-1.77-4.3v0c0-1.267 0.36-2.4 1.08-3.4 0.713-1 1.62-1.75 2.72-2.25v0c-0.733-0.467-1.317-1.083-1.75-1.85-0.433-0.767-0.65-1.583-0.65-2.45v0c0-1.267 0.417-2.36 1.25-3.28 0.833-0.913 1.9-1.47 3.2-1.67v0c-1.2-0.7-2.117-1.593-2.75-2.68-0.633-1.08-0.95-2.337-0.95-3.77v0c0-2.433 0.923-4.383 2.77-5.85 1.853-1.467 4.763-2.2 8.73-2.2v0c1.8 0 3.283 0.167 4.45 0.5v0c1.4-0.367 2.367-0.967 2.9-1.8 0.533-0.833 0.833-1.767 0.9-2.8v0h6c0 1.833-0.473 3.283-1.42 4.35-0.953 1.067-2.263 1.817-3.93 2.25v0 0.05c0.833 0.667 1.483 1.483 1.95 2.45 0.467 0.967 0.7 1.983 0.7 3.05v0c0 2.433-0.817 4.407-2.45 5.92-1.633 1.52-4.133 2.28-7.5 2.28v0h-4.1c-0.8 0-1.433 0.157-1.9 0.47-0.467 0.32-0.7 0.78-0.7 1.38v0c0 0.6 0.227 1.057 0.68 1.37 0.447 0.32 1.07 0.48 1.87 0.48v0h8.35c2.7 0 4.783 0.673 6.25 2.02 1.467 1.353 2.2 3.147 2.2 5.38v0c0 2.4-0.723 4.35-2.17 5.85-1.453 1.5-3.563 2.25-6.33 2.25zM911 4.95v0h8.4c0.9 0 1.6-0.26 2.1-0.78 0.5-0.513 0.75-1.137 0.75-1.87v0c0-0.7-0.243-1.3-0.73-1.8-0.48-0.5-1.187-0.75-2.12-0.75v0h-8.4c-0.933 0-1.64 0.25-2.12 0.75-0.487 0.5-0.73 1.117-0.73 1.85v0c0 0.7 0.243 1.307 0.73 1.82 0.48 0.52 1.187 0.78 2.12 0.78zM915.3-14.15v0c1.3 0 2.34-0.317 3.12-0.95 0.787-0.633 1.18-1.567 1.18-2.8v0c0-1.233-0.393-2.167-1.18-2.8-0.78-0.633-1.82-0.95-3.12-0.95v0c-1.267 0-2.29 0.317-3.07 0.95-0.787 0.633-1.18 1.567-1.18 2.8v0c0 1.233 0.393 2.167 1.18 2.8 0.78 0.633 1.803 0.95 3.07 0.95zM937.9 9.3v0c-0.9 0-1.727-0.057-2.48-0.17-0.747-0.12-1.403-0.297-1.97-0.53v0-5.3c0.367 0.167 0.883 0.327 1.55 0.48 0.667 0.147 1.317 0.22 1.95 0.22v0c0.967 0 1.717-0.217 2.25-0.65 0.533-0.433 0.95-1 1.25-1.7 0.3-0.7 0.6-1.467 0.9-2.3v0l-9.65-24.9h8.4l5.25 15.6h0.35l4.85-15.6h7.75l-9 24.05c-0.767 2.033-1.667 3.867-2.7 5.5-1.033 1.633-2.26 2.927-3.68 3.88-1.413 0.947-3.087 1.42-5.02 1.42zM1009.15 0h-8.25v-27.7h-9.5v-6.6h27.25v6.6h-9.5zM1035 0.5v0c-2.7 0-5.017-0.55-6.95-1.65-1.933-1.1-3.423-2.617-4.47-4.55-1.053-1.933-1.58-4.133-1.58-6.6v0-0.95c0-2.533 0.527-4.767 1.58-6.7 1.047-1.933 2.537-3.433 4.47-4.5 1.933-1.067 4.233-1.6 6.9-1.6v0c2.733 0 5.073 0.54 7.02 1.62 1.953 1.087 3.447 2.587 4.48 4.5 1.033 1.92 1.55 4.147 1.55 6.68v0 0.95c0 2.533-0.527 4.767-1.58 6.7-1.047 1.933-2.537 3.433-4.47 4.5-1.933 1.067-4.25 1.6-6.95 1.6zM1035-4.5v0c1.333 0 2.443-0.5 3.33-1.5 0.88-1 1.32-2.3 1.32-3.9v0-5.75c0-1.633-0.44-2.943-1.32-3.93-0.887-0.98-1.997-1.47-3.33-1.47v0c-1.3 0-2.4 0.49-3.3 1.47-0.9 0.987-1.35 2.297-1.35 3.93v0 5.75c0 1.6 0.45 2.9 1.35 3.9 0.9 1 2 1.5 3.3 1.5zM1061.95 0.5v0c-1.867 0-3.567-0.443-5.1-1.33-1.533-0.88-2.75-2.263-3.65-4.15-0.9-1.88-1.35-4.287-1.35-7.22v0-0.55c0-2.933 0.467-5.393 1.4-7.38 0.933-1.98 2.183-3.463 3.75-4.45 1.567-0.98 3.3-1.47 5.2-1.47v0c1.5 0 2.793 0.217 3.88 0.65 1.08 0.433 1.953 1.017 2.62 1.75v0-12.35h7.85v36h-6.4l-0.65-2.9c-0.733 1.033-1.7 1.857-2.9 2.47-1.2 0.62-2.75 0.93-4.65 0.93zM1064.25-4.6v0c1.267 0 2.323-0.467 3.17-1.4 0.853-0.933 1.28-2.3 1.28-4.1v0-5.4c0-1.8-0.427-3.167-1.28-4.1-0.847-0.933-1.903-1.4-3.17-1.4v0c-1.267 0-2.323 0.473-3.17 1.42-0.853 0.953-1.28 2.313-1.28 4.08v0 5.4c0 1.8 0.427 3.167 1.28 4.1 0.847 0.933 1.903 1.4 3.17 1.4zM1090.9 0.5v0c-2.633 0-4.7-0.617-6.2-1.85-1.5-1.233-2.25-3.1-2.25-5.6v0c0-2 0.543-3.633 1.63-4.9 1.08-1.267 2.777-2.2 5.09-2.8 2.32-0.6 5.33-0.9 9.03-0.9v0-2.3c0-1.067-0.307-1.893-0.92-2.48-0.62-0.58-1.597-0.87-2.93-0.87v0c-1.2 0-2.15 0.283-2.85 0.85-0.7 0.567-1.05 1.317-1.05 2.25v0 0.35h-7.15c0-0.233-0.007-0.393-0.02-0.48-0.02-0.08-0.03-0.13-0.03-0.15 0-0.013 0-0.03 0-0.05 0-0.013 0-0.07 0-0.17v0c0-2.3 1.033-4.117 3.1-5.45 2.067-1.333 4.85-2 8.35-2v0c3.7 0 6.517 0.69 8.45 2.07 1.933 1.387 2.9 3.463 2.9 6.23v0 11.75c0 0.5 0.11 0.867 0.33 1.1 0.213 0.233 0.503 0.35 0.87 0.35v0c0.533 0 1-0.133 1.4-0.4v0 4.45c-0.467 0.3-1.1 0.543-1.9 0.73-0.8 0.18-1.617 0.27-2.45 0.27v0c-1.267 0-2.267-0.133-3-0.4-0.733-0.267-1.267-0.667-1.6-1.2-0.333-0.533-0.567-1.217-0.7-2.05v0c-0.5 0.733-1.14 1.373-1.92 1.92-0.787 0.553-1.697 0.98-2.73 1.28-1.033 0.3-2.183 0.45-3.45 0.45zM1093.65-4.5v0c0.967 0 1.793-0.227 2.48-0.68 0.68-0.447 1.193-1.07 1.54-1.87 0.353-0.8 0.53-1.683 0.53-2.65v0-1.9c-1.9 0-3.433 0.133-4.6 0.4-1.167 0.267-2.017 0.69-2.55 1.27-0.533 0.587-0.8 1.363-0.8 2.33v0c0 1 0.283 1.767 0.85 2.3 0.567 0.533 1.417 0.8 2.55 0.8zM1117.9 9.3v0c-0.9 0-1.727-0.057-2.48-0.17-0.747-0.12-1.403-0.297-1.97-0.53v0-5.3c0.367 0.167 0.883 0.327 1.55 0.48 0.667 0.147 1.317 0.22 1.95 0.22v0c0.967 0 1.717-0.217 2.25-0.65 0.533-0.433 0.95-1 1.25-1.7 0.3-0.7 0.6-1.467 0.9-2.3v0l-9.65-24.9h8.4l5.25 15.6h0.35l4.85-15.6h7.75l-9 24.05c-0.767 2.033-1.667 3.867-2.7 5.5-1.033 1.633-2.26 2.927-3.68 3.88-1.413 0.947-3.087 1.42-5.02 1.42z" fill="#ffffff" fill-rule="nonzero" stroke="none" stroke-width="1" stroke-linecap="butt" stroke-linejoin="miter" stroke-miterlimit="10" stroke-dasharray="" stroke-dashoffset="0" font-family="none" font-weight="none" font-size="none" text-anchor="none" style="mix-blend-mode: normal" data-fill-palette-color="secondary" id="text-1"></path></g></g><g transform="matrix(1,0,0,1,29.53332000000003,19.185198805364067)"><svg viewBox="0 0 316.41599999999994 20.694990389271865" height="20.694990389271865" width="316.41599999999994"><g><svg viewBox="0 0 346.28502743082413 22.64855542902271" height="20.694990389271865" width="316.41599999999994"><g><rect width="1.4779089015184304" height="16.47018683514314" x="21.109902422871958" y="3.089184296939786" fill="#ffffff" opacity="1" stroke-width="0" stroke="transparent" fill-opacity="1" class="rect-qz-0" data-fill-palette-color="primary" rx="1%" id="qz-0" data-palette-color="#ff4057"></rect></g><g><rect width="1.4779089015184304" height="16.47018683514314" x="24.52224705936215" y="3.089184296939786" fill="#ffffff" opacity="1" stroke-width="0" stroke="transparent" fill-opacity="1" class="rect-qz-1" data-fill-palette-color="primary" rx="1%" id="qz-1" data-palette-color="#ff4057"></rect></g><g transform="matrix(1,0,0,1,29.869027430824115,3.130154910957554)"><svg viewBox="0 0 316.416 16.388245607107603" height="16.388245607107603" width="316.416"><g id="textblocktransform"><svg viewBox="0 0 316.416 16.388245607107603" height="16.388245607107603" width="316.416" id="textblock"><g><svg viewBox="0 0 316.416 16.388245607107603" height="16.388245607107603" width="316.416"><g transform="matrix(1,0,0,1,0,0)"><svg width="316.416" viewBox="2.92 -36.25 791.37 40.99" height="16.388245607107603" data-palette-color="#ff4057"><path d="M25.26 0.78L25.26 0.78Q15.89 0.78 9.4-1.46 2.92-3.7 2.92-9.69L2.92-9.69 2.92-10 7.6-10 7.6-9.69Q7.6-6.41 12.01-4.84 16.41-3.28 25.26-3.28L25.26-3.28Q33.8-3.28 38.31-4.69 42.81-6.09 42.81-8.75L42.81-8.75Q42.81-10.68 40.1-12.01 37.4-13.33 33.88-14.19 30.36-15.05 27.08-15.55 23.8-16.04 22.6-16.25L22.6-16.25Q20.21-16.67 17.03-17.19 13.85-17.71 11.02-18.8 8.18-19.9 6.2-21.88 4.22-23.85 4.22-27.14L4.22-27.14Q4.22-31.3 8.88-33.78 13.54-36.25 24.84-36.25L24.84-36.25Q37.45-36.25 41.82-33.36 46.2-30.47 46.2-25.99L46.2-25.99 46.2-25.68 41.46-25.68 41.46-25.99Q41.46-29.38 37.58-30.81 33.7-32.24 24.84-32.24L24.84-32.24Q16.35-32.24 12.6-31.04 8.85-29.84 8.85-26.93L8.85-26.93Q8.85-25.57 10.89-24.51 12.92-23.44 15.73-22.63 18.54-21.82 21.54-21.28 24.53-20.73 26.46-20.42L26.46-20.42Q36.93-18.75 42.11-16.43 47.29-14.11 47.29-8.75L47.29-8.75Q47.29-3.96 41.51-1.59 35.73 0.78 25.26 0.78ZM55.21 0L50 0 72.34-35.78 77.6-35.78 99.84 0 94.32 0 74.79-32.45 55.21 0ZM91.61-9.22L58.12-9.22 60.41-13.18 89.27-13.18 91.61-9.22ZM127.39 0L122.7 0 122.7-31.67 102.44-31.67 102.44-35.57 147.55-35.57 147.55-31.67 127.39-31.67 127.39 0ZM196.92 0L153.07 0 153.07-3.85 172.65-3.85 172.65-31.72 153.07-31.72 153.07-35.57 196.92-35.57 196.92-31.72 177.34-31.72 177.34-3.85 196.92-3.85 196.92 0ZM225.25 0.78L225.25 0.78Q215.88 0.78 209.39-1.46 202.91-3.7 202.91-9.69L202.91-9.69 202.91-10 207.59-10 207.59-9.69Q207.59-6.41 212-4.84 216.4-3.28 225.25-3.28L225.25-3.28Q233.79-3.28 238.3-4.69 242.8-6.09 242.8-8.75L242.8-8.75Q242.8-10.68 240.09-12.01 237.39-13.33 233.87-14.19 230.35-15.05 227.07-15.55 223.79-16.04 222.59-16.25L222.59-16.25Q220.2-16.67 217.02-17.19 213.84-17.71 211.01-18.8 208.17-19.9 206.19-21.88 204.21-23.85 204.21-27.14L204.21-27.14Q204.21-31.3 208.87-33.78 213.53-36.25 224.83-36.25L224.83-36.25Q237.44-36.25 241.81-33.36 246.19-30.47 246.19-25.99L246.19-25.99 246.19-25.68 241.45-25.68 241.45-25.99Q241.45-29.38 237.57-30.81 233.69-32.24 224.83-32.24L224.83-32.24Q216.34-32.24 212.59-31.04 208.84-29.84 208.84-26.93L208.84-26.93Q208.84-25.57 210.88-24.51 212.91-23.44 215.72-22.63 218.53-21.82 221.53-21.28 224.52-20.73 226.45-20.42L226.45-20.42Q236.92-18.75 242.1-16.43 247.28-14.11 247.28-8.75L247.28-8.75Q247.28-3.96 241.5-1.59 235.72 0.78 225.25 0.78ZM260.35 0L255.66 0 255.66-35.57 260.35-35.57 260.35-20.26 289.52-20.26 289.52-35.57 294.31-35.57 294.31 0 289.52 0 289.52-16.41 260.35-16.41 260.35 0ZM347.59 4.74L302.38 4.74 302.38 0.83 347.59 0.83 347.59 4.74ZM396.91 0L353.06 0 353.06-3.85 372.64-3.85 372.64-31.72 353.06-31.72 353.06-35.57 396.91-35.57 396.91-31.72 377.33-31.72 377.33-3.85 396.91-3.85 396.91 0ZM410.14 0L405.66 0 405.66-35.57 410.55-35.57 439.82-5.47 440.03-5.47 439.82-8.75 439.82-35.57 444.3-35.57 444.3 0 439.36 0 410.24-29.95 410.03-29.95 410.14-26.61 410.14 0ZM460.13 0L455.65 0 455.65-35.57 460.55-35.57 489.82-5.47 490.03-5.47 489.82-8.75 489.82-35.57 494.3-35.57 494.3 0 489.35 0 460.24-29.95 460.03-29.95 460.13-26.61 460.13 0ZM525.03 0.78L525.03 0.78Q516.28 0.78 509.92-3.52 503.57-7.81 503.57-17.29L503.57-17.29 503.57-18.18Q503.57-27.66 509.92-31.95 516.28-36.25 525.03-36.25L525.03-36.25Q533.73-36.25 540.08-31.9 546.43-27.55 546.43-18.18L546.43-18.18 546.43-17.29Q546.43-7.92 540.08-3.57 533.73 0.78 525.03 0.78ZM525.03-3.28L525.03-3.28Q531.9-3.28 536.8-6.56 541.69-9.84 541.69-17.29L541.69-17.29 541.69-18.18Q541.69-25.63 536.8-28.93 531.9-32.24 525.03-32.24L525.03-32.24Q518.05-32.24 513.18-28.96 508.31-25.68 508.31-18.18L508.31-18.18 508.31-17.29Q508.31-9.79 513.2-6.54 518.1-3.28 525.03-3.28ZM597.58 4.74L552.37 4.74 552.37 0.83 597.58 0.83 597.58 4.74ZM627.37 0L622.68 0 622.68-31.67 602.42-31.67 602.42-35.57 647.52-35.57 647.52-31.67 627.37-31.67 627.37 0ZM697.47 0L655.64 0 655.64-35.57 697.05-35.57 697.05-31.67 660.33-31.67 660.33-20.26 692.62-20.26 692.62-16.41 660.33-16.41 660.33-3.8 697.47-3.8 697.47 0ZM726.21 0.78L726.21 0.78Q721.84 0.78 717.7-0.34 713.56-1.46 710.36-3.78 707.15-6.09 705.23-9.58 703.3-13.07 703.3-17.76L703.3-17.76Q703.3-22.5 705.23-25.96 707.15-29.43 710.36-31.72 713.56-34.01 717.7-35.13 721.84-36.25 726.21-36.25L726.21-36.25Q729.29-36.25 732.67-35.73 736.06-35.21 739.05-33.88 742.05-32.55 744.26-30.26 746.48-27.97 747.2-24.38L747.2-24.38 742.52-24.38Q741.84-26.72 739.96-28.23 738.09-29.74 735.69-30.65 733.3-31.56 730.77-31.9 728.25-32.24 726.21-32.24L726.21-32.24Q722.88-32.24 719.63-31.3 716.37-30.36 713.79-28.54 711.21-26.72 709.63-24.01 708.04-21.3 708.04-17.76L708.04-17.76Q708.04-10.31 713.64-6.8 719.24-3.28 726.21-3.28L726.21-3.28Q727.99-3.28 730.67-3.62 733.35-3.96 735.9-4.82 738.45-5.68 740.38-7.24 742.31-8.8 742.52-11.2L742.52-11.2 747.2-11.2Q746.89-7.6 744.65-5.26 742.41-2.92 739.26-1.59 736.11-0.26 732.57 0.26 729.03 0.78 726.21 0.78ZM760.33 0L755.64 0 755.64-35.57 760.33-35.57 760.33-20.26 789.49-20.26 789.49-35.57 794.29-35.57 794.29 0 789.49 0 789.49-16.41 760.33-16.41 760.33 0Z" opacity="1" transform="matrix(1,0,0,1,0,0)" fill="#ffffff" class="wordmark-text-0" data-fill-palette-color="primary" id="text-0"></path></svg></g></svg></g></svg></g></svg></g><g><svg viewBox="0 0 17.241030952928423 22.64855542902271" height="22.64855542902271" width="17.241030952928423"><g><svg xmlns="http://www.w3.org/2000/svg" xmlns:xlink="http://www.w3.org/1999/xlink" version="1.1" x="0" y="0" viewBox="14.5 3.3 71.1 93.39999999999999" enable-background="new 0 0 100 100" xml:space="preserve" height="22.64855542902271" width="17.241030952928423" class="icon-icon-0" data-fill-palette-color="accent" id="icon-0"><path d="M52.1 84.4v8.1h12.2c1.2 0 2.1 1 2.1 2.1s-1 2.1-2.1 2.1H35.7c-1.2 0-2.1-1-2.1-2.1s1-2.1 2.1-2.1h12.2v-8.1H18.7c-2.3 0-4.2-1.9-4.2-4.2V39.9c0-2.3 1.9-4.2 4.2-4.2H33c1.2 0 2.1 1 2.1 2.1s-1 2.1-2.1 2.1H18.7l0 17.6v22.7l31.2 0c0 0 0 0 0.1 0 0 0 0 0 0.1 0l31.2 0 0-40.3-14.2 0c-1.2 0-2.1-1-2.1-2.1s1-2.1 2.1-2.1h14.3c2.3 0 4.2 1.9 4.2 4.2v40.3c0 2.3-1.9 4.2-4.2 4.2H52.1zM50.2 3.3c3.5 0.1 6.3 3 6.2 6.5-0.1 2.7-1.8 5-4.2 5.8v52.9c0 1.2-1 2.1-2.1 2.1-1.2 0-2.1-1-2.1-2.1V15.6c-0.9-0.3-1.8-0.9-2.5-1.6-1.2-1.2-1.8-2.8-1.8-4.5 0.1-3.4 2.9-6.2 6.4-6.2L50.2 3.3zM50.1 7.5L50.1 7.5c-1.2 0-2.1 0.9-2.2 2.1 0 0.6 0.2 1.1 0.6 1.5 0.4 0.4 0.9 0.6 1.5 0.7l0.1 0c1.1 0 2.1-0.9 2.1-2.1C52.1 8.5 51.2 7.6 50.1 7.5zM57.2 58.6V25.9c0-3.8 3.1-6.9 6.9-6.9h4.8c0.9-2.5 3.2-4.2 6-4.2 3.5 0 6.4 2.9 6.4 6.4s-2.9 6.4-6.4 6.4c-2.8 0-5.1-1.8-6-4.2h-4.8c-1.5 0-2.6 1.2-2.6 2.6v32.7c0 1.2-1 2.1-2.1 2.1C58.2 60.8 57.2 59.8 57.2 58.6zM72.8 21.2c0 1.2 0.9 2.1 2.1 2.1 1.2 0 2.1-0.9 2.1-2.1S76.1 19 74.9 19C73.7 19 72.8 20 72.8 21.2zM38.5 58.6V25.9c0-1.5-1.2-2.6-2.6-2.6h-4.8c-0.9 2.5-3.2 4.2-6 4.2-3.5 0-6.4-2.9-6.4-6.4s2.9-6.4 6.4-6.4c2.8 0 5.1 1.8 6 4.2h4.8c3.8 0 6.9 3.1 6.9 6.9v32.7c0 1.2-1 2.1-2.1 2.1S38.5 59.8 38.5 58.6zM27.2 21.2c0-1.2-0.9-2.1-2.1-2.1S23 20 23 21.2s0.9 2.1 2.1 2.1S27.2 22.3 27.2 21.2z" fill="#ffffff" data-fill-palette-color="accent"></path></svg></g></svg></g></svg></g></svg></g></svg></g><defs></defs></svg><rect width="375.48264" height="59.065388" fill="none" stroke="none" visibility="hidden"></rect></g></svg></g></svg>